<?xml version="1.0" encoding="UTF-8"?>
<svg version="1.1" xmlns="http://www.w3.org/2000/svg" width="140" height="200">
<path d="M0 0 C1 1 1 1 1.1328125 3.58203125 C1.13023438 4.64808594 1.12765625 5.71414063 1.125 6.8125 C1.12886719 8.39998047 1.12886719 8.39998047 1.1328125 10.01953125 C1.02063661 12.53689017 0.7309121 14.60423255 0 17 C0.66 17 1.32 17 2 17 C2.02578125 16.41992188 2.0515625 15.83984375 2.078125 15.2421875 C2.47442527 9.78405202 3.32654191 6.28570111 7 2 C10.06215642 -0.49807497 11.2776098 -1.05556848 15.25 -0.75 C18 -0 18 -0 19 1 C19.82802867 7.21021505 17.68302347 11.62756867 15.09375 17.23046875 C13.75512275 20.12378377 13.75512275 20.12378377 14 24 C14.99 24.99 14.99 24.99 16 26 C20.17997492 39.23019585 19.36180564 52.31414037 18.2421875 65.953125 C17.57011017 72.98400708 17.57011017 72.98400708 18 80 C20.12827495 82.36953047 20.12827495 82.36953047 23 84 C29.74261479 91.38861382 32.72150998 100.31183013 32.40234375 110.21875 C31.77605603 114.54803989 30.13725038 117.86274962 27 121 C26.8534007 123.18198706 26.77248438 125.36844152 26.71875 127.5546875 C26.70034058 128.21203888 26.68193115 128.86939026 26.66296387 129.54666138 C26.6040572 131.65601423 26.55133542 133.76545011 26.5 135.875 C26.43229288 138.64339848 26.35854816 141.41154219 26.28125 144.1796875 C26.25095703 145.41444824 26.22066406 146.64920898 26.18945312 147.92138672 C26 151 26 151 25 154 C25.66 154 26.32 154 27 154 C27.38389796 178.05760527 27.38389796 178.05760527 22 185 C14.58573492 191.46848184 7.63186161 191.59656801 -2 191 C-4.99710969 190.3820894 -6.38781559 189.72166699 -9 188 C-10.171875 185.38671875 -10.171875 185.38671875 -11 183 C-12.05574219 183.2165625 -12.05574219 183.2165625 -13.1328125 183.4375 C-33.64610563 187.29378487 -33.64610563 187.29378487 -42 183 C-44.85573062 179.75835984 -46.26841013 177.15541961 -46.5 172.875 C-46 169 -46 169 -44.5 166.5625 C-40.98174839 164.36359275 -38.12523715 164.27501581 -34 164 C-34.28875 163.31292969 -34.5775 162.62585938 -34.875 161.91796875 C-35.24625 161.01691406 -35.6175 160.11585938 -36 159.1875 C-36.556875 157.84751953 -36.556875 157.84751953 -37.125 156.48046875 C-38 154 -38 154 -38 151 C-37.34 151 -36.68 151 -36 151 C-37.44331256 145.71165716 -38.90364934 140.42873624 -40.39355469 135.15332031 C-40.86577939 133.47658041 -41.32917945 131.79735429 -41.7890625 130.1171875 C-43.27568609 125.1199829 -45.65988207 121.38321476 -48.63671875 117.12109375 C-51.92496872 112.00499136 -52.9614381 105.9685316 -52 100 C-50.33905116 94.49849289 -48.60875297 88.84861991 -45.7734375 83.828125 C-44.7937743 81.51255743 -45.17023166 80.32335135 -46 78 C-46.85658203 78.05220703 -46.85658203 78.05220703 -47.73046875 78.10546875 C-61.90657982 78.57875704 -75.10552711 74.14972037 -85.6328125 64.50390625 C-90.93730639 58.66896297 -91.30613219 51.35907688 -91.21484375 43.86328125 C-90.90383781 39.71842028 -90.27922004 35.53940313 -88 32 C-83.46438184 29.36468036 -77.9234637 29.15744222 -72.8125 28.4375 C-58.49933355 26.30273313 -44.41255677 23.18869926 -30.28442383 20.08569336 C-28.94824257 19.79313156 -28.94824257 19.79313156 -27.58506775 19.49465942 C-25.90874751 19.1268746 -24.23297446 18.75658289 -22.55787659 18.38327026 C-18.05046871 17.39150623 -13.57768779 16.59151608 -9 16 C-9.495 15.01 -9.495 15.01 -10 14 C-10.54930958 8.62310433 -10.54185108 4.35920132 -7 0 C-4.31633121 -1.3418344 -2.84719317 -0.73004953 0 0 Z " fill="#969E9D" transform="translate(96,5)"/>
<path d="M0 0 C1.65 0.33 3.3 0.66 5 1 C5.11138159 6.45769811 4.91657981 11.61509359 4 17 C5.65 17.33 7.3 17.66 9 18 C8.95875 16.88625 8.9175 15.7725 8.875 14.625 C9 11 9 11 11 9 C11.99 9 12.98 9 14 9 C13.67 11.64 13.34 14.28 13 17 C13.26554687 16.43410156 13.53109375 15.86820313 13.8046875 15.28515625 C14.15789062 14.55167969 14.51109375 13.81820313 14.875 13.0625 C15.22304687 12.33160156 15.57109375 11.60070312 15.9296875 10.84765625 C17 9 17 9 19 8 C19.99 8.495 19.99 8.495 21 9 C20.56878732 12.01848877 20.05446182 13.91621258 18.375 16.5 C16.8060067 18.85336139 16.8060067 18.85336139 17.0625 21.25 C17.86133799 23.88244325 17.86133799 23.88244325 18.95556641 25.65942383 C23.08416037 33.22355126 22.47942289 41.09412239 22.3125 49.4375 C22.30098124 50.90167997 22.29120424 52.36587471 22.28320312 53.83007812 C22.25014765 57.89005807 22.14166421 61.94229458 22 66 C21.96567871 67.04172363 21.93135742 68.08344727 21.89599609 69.15673828 C21.84137207 70.04474121 21.78674805 70.93274414 21.73046875 71.84765625 C21.68688232 72.59152588 21.6432959 73.33539551 21.59838867 74.10180664 C20.75976455 76.76206881 19.32557635 77.55372995 17 79 C14.58984375 80.09765625 14.58984375 80.09765625 11.9375 81.0625 C11.08027344 81.38347656 10.22304687 81.70445313 9.33984375 82.03515625 C0.72258904 84.52458539 -7.68099419 85.34239307 -16.625 85.3125 C-18.08292969 85.33666992 -18.08292969 85.33666992 -19.5703125 85.36132812 C-26.43275375 85.36593998 -33.89854813 85.00746848 -39.0625 80 C-40 78 -40 78 -40 75 C-40.65484375 75.03480469 -41.3096875 75.06960937 -41.984375 75.10546875 C-49.196026 75.31937365 -56.25022727 74.74280063 -63 72 C-63.33 71.01 -63.66 70.02 -64 69 C-63.44570313 68.75765625 -62.89140625 68.5153125 -62.3203125 68.265625 C-61.23363281 67.76289063 -61.23363281 67.76289063 -60.125 67.25 C-59.04605469 66.76273438 -59.04605469 66.76273438 -57.9453125 66.265625 C-55.56852165 64.71927915 -55.05244198 63.6127317 -54 61 C-53.69532806 58.66960063 -53.69532806 58.66960063 -53.734375 56.18359375 C-53.73050781 55.25885254 -53.72664063 54.33411133 -53.72265625 53.38134766 C-53.73167969 52.40987793 -53.74070312 51.4384082 -53.75 50.4375 C-53.75386719 49.45056152 -53.75773437 48.46362305 -53.76171875 47.44677734 C-53.8409341 40.78058547 -54.3901498 34.48411885 -56 28 C-37.17995444 23.40774487 -37.17995444 23.40774487 -28 24 C-28 25.32 -28 26.64 -28 28 C-27.01 28 -26.02 28 -25 28 C-25 28.66 -25 29.32 -25 30 C-23.68 30 -22.36 30 -21 30 C-20.505 31.98 -20.505 31.98 -20 34 C-18.35 34 -16.7 34 -15 34 C-15 32.35 -15 30.7 -15 29 C-17.64 28.67 -20.28 28.34 -23 28 C-23 27.67 -23 27.34 -23 27 C-20.69 27 -18.38 27 -16 27 C-16 26.34 -16 25.68 -16 25 C-18.97 24.67 -21.94 24.34 -25 24 C-24.505 22.515 -24.505 22.515 -24 21 C-17.73 20.01 -11.46 19.02 -5 18 C-5 17.34 -5 16.68 -5 16 C-4.34 15.34 -3.68 14.68 -3 14 C-3.13185564 11.94429665 -3.13185564 11.94429665 -3.625 9.6875 C-4.16499175 5.92575969 -4.20512388 5.32422806 -2.0625 1.9375 C-1.381875 1.298125 -0.70125 0.65875 0 0 Z " fill="#A68240" transform="translate(91,6)"/>
<path d="M0 0 C4.04704581 0.72404774 7.89070402 1.83446287 11.8125 3.0625 C13.55466797 3.60583984 13.55466797 3.60583984 15.33203125 4.16015625 C16.65267578 4.57587891 16.65267578 4.57587891 18 5 C18 5.33 18 5.66 18 6 C15.03 5.67 12.06 5.34 9 5 C9 5.66 9 6.32 9 7 C9.99 7.33 10.98 7.66 12 8 C12.4640625 8.49371094 12.928125 8.98742187 13.40625 9.49609375 C15.39997572 11.37742807 16.82198045 11.60277331 19.5 12.0625 C22.78172852 12.63680249 24.12102671 13.08068448 27 15 C27 14.34 27 13.68 27 13 C26.01 12.67 25.02 12.34 24 12 C24 11.01 24 10.02 24 9 C24.66 9 25.32 9 26 9 C26 8.01 26 7.02 26 6 C28.22850277 5.66225668 30.45783467 5.3299813 32.6875 5 C33.92886719 4.814375 35.17023438 4.62875 36.44921875 4.4375 C39.35886371 4.07899589 42.07700022 3.91057744 45 4 C45 3.34 45 2.68 45 2 C46.65 1.67 48.3 1.34 50 1 C53 5.75 53 5.75 53 8 C55.97 8 58.94 8 62 8 C62 17.9 62 27.8 62 38 C54.41 38 46.82 38 39 38 C41.43716215 39.21858107 43.03274057 39.12925575 45.75390625 39.1328125 C46.69041016 39.13410156 47.62691406 39.13539063 48.59179688 39.13671875 C49.57212891 39.13285156 50.55246094 39.12898438 51.5625 39.125 C53.03879883 39.13080078 53.03879883 39.13080078 54.54492188 39.13671875 C55.48013672 39.13542969 56.41535156 39.13414062 57.37890625 39.1328125 C58.2407251 39.13168457 59.10254395 39.13055664 59.99047852 39.12939453 C61.99790032 39.22216915 61.99790032 39.22216915 63 38 C64.66617115 37.95936168 66.33388095 37.957279 68 38 C69.20291753 46.36490345 70.32345643 56.14226414 66.375 63.9375 C62.9583238 68.34321404 59.30090354 71.23303215 54 73 C39.03499921 73.97761312 39.03499921 73.97761312 33 70 C31.828125 67.38671875 31.828125 67.38671875 31 65 C29.94425781 65.2165625 29.94425781 65.2165625 28.8671875 65.4375 C8.35389437 69.29378487 8.35389437 69.29378487 0 65 C-2.85573062 61.75835984 -4.26841013 59.15541961 -4.5 54.875 C-4 51 -4 51 -2.5 48.5625 C1.01825161 46.36359275 3.87476285 46.27501581 8 46 C7.01 40.555 7.01 40.555 6 35 C6.66 35 7.32 35 8 35 C7.61908203 33.85337891 7.61908203 33.85337891 7.23046875 32.68359375 C4.80531391 25.13563993 3.03631338 17.71277715 1.61328125 9.921875 C1.30343238 7.12117382 1.30343238 7.12117382 0 6 C-0.04080783 4.00041636 -0.04254356 1.99954746 0 0 Z " fill="#613E2E" transform="translate(54,123)"/>
<path d="M0 0 C3.68747409 3.28666169 3.68747409 3.28666169 5 6 C4.8125 9.875 4.8125 9.875 4 13 C3.505 12.01 3.505 12.01 3 11 C0.69 11 -1.62 11 -4 11 C-4 10.34 -4 9.68 -4 9 C-4.66 9 -5.32 9 -6 9 C-6.33 9.99 -6.66 10.98 -7 12 C-7.66 12 -8.32 12 -9 12 C-9.64789461 16.39571576 -10.13593563 20.21157333 -9.375 24.625 C-8.86938806 29.17550748 -9.65008495 31.08347492 -12 35 C-15.95574044 36.25261416 -19.93039728 36.1151898 -24.05078125 36.09765625 C-24.70958786 36.0962413 -25.36839447 36.09482635 -26.04716492 36.09336853 C-28.13565762 36.087805 -30.22404011 36.07525947 -32.3125 36.0625 C-33.73502449 36.05748028 -35.15755066 36.0529182 -36.58007812 36.04882812 C-40.05342077 36.03784757 -43.52669961 36.02060835 -47 36 C-46.67 36.99 -46.34 37.98 -46 39 C-51.875 38.125 -51.875 38.125 -53 37 C-54.485 36.505 -54.485 36.505 -56 36 C-60.16333079 32.46116882 -62.29951968 29.19093992 -64 24 C-64.1875 20.0625 -64.1875 20.0625 -64 17 C-65.4467203 19.4829275 -65.4467203 19.4829275 -66 23 C-65.14918422 25.70333091 -64.0688009 28.17431066 -62.84765625 30.73046875 C-62 33 -62 33 -63 36 C-67.66162791 34.52790698 -67.66162791 34.52790698 -69.13671875 32.2265625 C-72.67482657 23.10112605 -68.63151515 13.45369099 -65 5 C-64 4 -64 4 -61.875 3.75 C-58.83892735 4.01400632 -56.61405071 4.95815096 -53.85546875 6.19921875 C-41.3344684 11.6030189 -26.76991736 9.77770138 -14.36328125 4.98046875 C-1.92616796 -0.36688914 -1.92616796 -0.36688914 0 0 Z " fill="#A3A8A6" transform="translate(115,87)"/>
<path d="M0 0 C0 0.66 0 1.32 0 2 C-5.56550382 3.47013308 -11.08674946 4.56081972 -16.77734375 5.4375 C-17.87755859 5.7159375 -17.87755859 5.7159375 -19 6 C-19.33 6.66 -19.66 7.32 -20 8 C-18.329375 7.9690625 -18.329375 7.9690625 -16.625 7.9375 C-13 8 -13 8 -11 9 C-11 9.66 -11 10.32 -11 11 C-11.66 11.33 -12.32 11.66 -13 12 C-12.01 12.33 -11.02 12.66 -10 13 C-10 14.65 -10 16.3 -10 18 C-11.65 18.33 -13.3 18.66 -15 19 C-15.33 17.35 -15.66 15.7 -16 14 C-17.32 14 -18.64 14 -20 14 C-20 13.34 -20 12.68 -20 12 C-20.99 12 -21.98 12 -23 12 C-23 10.68 -23 9.36 -23 8 C-30.24774932 9.08312947 -37.46734963 10.22669993 -44.66015625 11.6328125 C-47 12 -47 12 -51 12 C-50.5359375 13.051875 -50.5359375 13.051875 -50.0625 14.125 C-47.67578825 20.58316121 -47.75516612 27.19729976 -47.6875 34 C-47.65849609 34.97195312 -47.62949219 35.94390625 -47.59960938 36.9453125 C-47.54625018 42.97079692 -47.97209015 46.42011731 -52 51 C-54.67344514 52.78229676 -55.73770359 53 -59 53 C-58.1673723 55.24591878 -58.1673723 55.24591878 -55.6640625 55.81640625 C-48.77150667 57.50853757 -42.08727561 58.59541143 -35 59 C-33.50178941 62.37097383 -33 64.20442119 -33 68 C-33.66 68 -34.32 68 -35 68 C-37.72927213 75.53798969 -39.42467319 83.14571103 -41 91 C-41.33 91 -41.66 91 -42 91 C-42.8447238 82.55276204 -39.91919844 74.16902654 -35.7734375 66.828125 C-34.7937743 64.51255743 -35.17023166 63.32335135 -36 61 C-36.85658203 61.05220703 -36.85658203 61.05220703 -37.73046875 61.10546875 C-51.90657982 61.57875704 -65.10552711 57.14972037 -75.6328125 47.50390625 C-80.93730639 41.66896297 -81.30613219 34.35907688 -81.21484375 26.86328125 C-80.90383781 22.71842028 -80.27922004 18.53940313 -78 15 C-73.46455321 12.36477993 -67.92336332 12.15706949 -62.8125 11.4375 C-48.46315498 9.30578646 -34.34853513 6.15547195 -20.1965332 2.99780273 C-19.30393799 2.80095383 -18.41134277 2.60410492 -17.49169922 2.40129089 C-15.80809124 2.02973746 -14.12562603 1.65295195 -12.44458008 1.26997375 C-8.21141217 0.33822278 -4.36643298 -0.20412453 0 0 Z " fill="#050403" transform="translate(86,22)"/>
<path d="M0 0 C3 4.38461538 3 4.38461538 3 7 C5.97 7 8.94 7 12 7 C12 16.9 12 26.8 12 37 C4.41 37 -3.18 37 -11 37 C-8.56283785 38.21858107 -6.96725943 38.12925575 -4.24609375 38.1328125 C-3.30958984 38.13410156 -2.37308594 38.13539063 -1.40820312 38.13671875 C-0.42787109 38.13285156 0.55246094 38.12898438 1.5625 38.125 C3.03879883 38.13080078 3.03879883 38.13080078 4.54492188 38.13671875 C5.94774414 38.13478516 5.94774414 38.13478516 7.37890625 38.1328125 C8.2407251 38.13168457 9.10254395 38.13055664 9.99047852 38.12939453 C11.99790032 38.22216915 11.99790032 38.22216915 13 37 C14.66617115 36.95936168 16.33388095 36.957279 18 37 C18.22245393 38.60226955 18.42746669 40.20696767 18.625 41.8125 C18.74101563 42.70582031 18.85703125 43.59914062 18.9765625 44.51953125 C19 47 19 47 17 50 C16.34 48.68 15.68 47.36 15 46 C14.67 46.33 14.34 46.66 14 47 C4.896548 48.08231266 -3.89343584 48.1022843 -13 47 C-15.0149925 41.58470765 -15.0149925 41.58470765 -14.9375 38.5625 C-15.00838582 35.65618137 -15.93324383 33.63963964 -17.1328125 31.0234375 C-19.61824874 25.22408627 -21.50209701 19.35989546 -21 13 C-19.02 12.67 -17.04 12.34 -15 12 C-17.31 11.34 -19.62 10.68 -22 10 C-21.67 9.01 -21.34 8.02 -21 7 C-21.99 6.34 -22.98 5.68 -24 5 C-21.77149723 4.66225668 -19.54216533 4.3299813 -17.3125 4 C-15.45044922 3.7215625 -15.45044922 3.7215625 -13.55078125 3.4375 C-10.64113629 3.07899589 -7.92299978 2.91057744 -5 3 C-5 2.34 -5 1.68 -5 1 C-2 0 -2 0 0 0 Z " fill="#84B7A6" transform="translate(104,124)"/>
<path d="M0 0 C0.268125 0.5775 0.53625 1.155 0.8125 1.75 C1.92190915 4.02281979 1.92190915 4.02281979 3.5 5.875 C6.92454672 10.72644119 7.24897891 15.6532762 7.23046875 21.453125 C7.23001053 22.15338806 7.22955231 22.85365112 7.2290802 23.57513428 C7.22607346 25.05092064 7.21823475 26.52670428 7.20581055 28.00244141 C7.18766611 30.22961032 7.18530055 32.45635888 7.18554688 34.68359375 C7.17275138 40.74306631 7.1127647 46.81053378 6.73828125 52.859375 C6.69356689 53.60155273 6.64885254 54.34373047 6.6027832 55.10839844 C5.75658014 57.76387892 4.32665311 58.5570186 2 60 C0.23529428 60.7730584 -1.5598318 61.47926789 -3.375 62.125 C-4.29023437 62.45757812 -5.20546875 62.79015625 -6.1484375 63.1328125 C-11.4354395 64.74064051 -16.36430449 65.11873159 -21.875 65.0625 C-23.60363281 65.04896484 -23.60363281 65.04896484 -25.3671875 65.03515625 C-26.67042969 65.01775391 -26.67042969 65.01775391 -28 65 C-28.09152344 64.38640625 -28.18304688 63.7728125 -28.27734375 63.140625 C-29.18567591 60.44999783 -30.07515677 60.01628383 -32.5625 58.75 C-34.2640625 57.88375 -34.2640625 57.88375 -36 57 C-35.67 55.35 -35.34 53.7 -35 52 C-34.11957031 51.80664062 -33.23914063 51.61328125 -32.33203125 51.4140625 C-31.17058594 51.15367188 -30.00914063 50.89328125 -28.8125 50.625 C-27.66394531 50.36976562 -26.51539062 50.11453125 -25.33203125 49.8515625 C-22.39422968 49.10075272 -19.73259152 48.3088464 -17 47 C-16.67 46.34 -16.34 45.68 -16 45 C-15.01 45 -14.02 45 -13 45 C-12.34 43.68 -11.68 42.36 -11 41 C-11.66 41 -12.32 41 -13 41 C-13 39.35 -13 37.7 -13 36 C-11.35 36 -9.7 36 -8 36 C-7.67 35.34 -7.34 34.68 -7 34 C-4.36 34 -1.72 34 1 34 C2.12214652 30.63356045 1.9256268 30.17087872 0.625 27.0625 C-2.33587786 19.88167939 -2.33587786 19.88167939 -1 16.375 C-0.505 15.199375 -0.505 15.199375 0 14 C-0.495 13.01 -0.495 13.01 -1 12 C-0.34 11.67 0.32 11.34 1 11 C0.505 9.515 0.505 9.515 0 8 C0.33 7.01 0.66 6.02 1 5 C0.34 5 -0.32 5 -1 5 C-0.67 3.35 -0.34 1.7 0 0 Z " fill="#AD7A40" transform="translate(106,25)"/>
<path d="M0 0 C4.04704581 0.72404774 7.89070402 1.83446287 11.8125 3.0625 C13.55466797 3.60583984 13.55466797 3.60583984 15.33203125 4.16015625 C16.65267578 4.57587891 16.65267578 4.57587891 18 5 C18 5.33 18 5.66 18 6 C15.03 5.67 12.06 5.34 9 5 C9 5.66 9 6.32 9 7 C9.99 7.33 10.98 7.66 12 8 C12.69802734 8.74443359 12.69802734 8.74443359 13.41015625 9.50390625 C15.85703285 11.80649529 18.51150502 11.80118602 21.74609375 12.27734375 C24.75193255 13.24108756 26.03114863 14.54734969 28 17 C29.08203125 19.65625 29.08203125 19.65625 29.8125 22.5 C30.06644531 23.4384375 30.32039063 24.376875 30.58203125 25.34375 C31.00694606 28.0441432 30.69284017 29.41903816 30 32 C30.33 33.32 30.66 34.64 31 36 C24.07 36 17.14 36 10 36 C13.33013019 36.66602604 16.10823693 37.14933567 19.42578125 37.31640625 C20.22177734 37.35830078 21.01777344 37.40019531 21.83789062 37.44335938 C23.06282227 37.50233398 23.06282227 37.50233398 24.3125 37.5625 C25.14845703 37.60568359 25.98441406 37.64886719 26.84570312 37.69335938 C28.89696935 37.79885307 30.9484648 37.89987315 33 38 C34.31626692 41.61973402 35 44.09567131 35 48 C33.56260487 48.02712066 32.12506137 48.04645067 30.6875 48.0625 C29.88699219 48.07410156 29.08648437 48.08570313 28.26171875 48.09765625 C26 48 26 48 23 47 C23 46.34 23 45.68 23 45 C18.38 45 13.76 45 9 45 C8.01 41.7 7.02 38.4 6 35 C6.66 35 7.32 35 8 35 C7.74605469 34.23558594 7.49210937 33.47117188 7.23046875 32.68359375 C4.80531391 25.13563993 3.03631338 17.71277715 1.61328125 9.921875 C1.30343238 7.12117382 1.30343238 7.12117382 0 6 C-0.04080783 4.00041636 -0.04254356 1.99954746 0 0 Z " fill="#8CBAB6" transform="translate(54,123)"/>
<path d="M0 0 C5.61 0.33 11.22 0.66 17 1 C17 1.33 17 1.66 17 2 C12.05 2 7.1 2 2 2 C2 2.66 2 3.32 2 4 C7.445 4.495 7.445 4.495 13 5 C9.00889681 6.9955516 7.30013434 7.19546065 3 7 C3.27714844 8.08539063 3.55429688 9.17078125 3.83984375 10.2890625 C4.2058563 11.73434281 4.5717346 13.17965712 4.9375 14.625 C5.21110352 15.69427734 5.21110352 15.69427734 5.49023438 16.78515625 C6.30636602 20.02000533 7.02236197 23.15358689 7.50390625 26.4609375 C7.74947266 27.71777344 7.74947266 27.71777344 8 29 C8.66 29.33 9.32 29.66 10 30 C10.4140625 32.28515625 10.4140625 32.28515625 10.625 35.0625 C10.69976562 35.98160156 10.77453125 36.90070313 10.8515625 37.84765625 C10.90054688 38.55792969 10.94953125 39.26820313 11 40 C13.31 40.33 15.62 40.66 18 41 C18 41.33 18 41.66 18 42 C14.535 42.495 14.535 42.495 11 43 C11 43.99 11 44.98 11 46 C9.50013291 47.2126585 7.99394882 48.4226455 6.41015625 49.5234375 C4.50367747 51.51969506 4.3548396 53.31399899 4 56 C-3.7558343 57.70994772 -11.06603268 58.24923458 -19 58 C-19.33 57.34 -19.66 56.68 -20 56 C-21.7015625 55.566875 -21.7015625 55.566875 -23.4375 55.125 C-27 54 -27 54 -28.5 52.25 C-29.21110576 49.05002407 -29.04153715 47.12461145 -28 44 C-24.87219727 41.42825109 -22.03695331 39.62106974 -18 39 C-17.67 37.68 -17.34 36.36 -17 35 C-17 35.99 -17 36.98 -17 38 C-12.38 38 -7.76 38 -3 38 C-3 38.66 -3 39.32 -3 40 C0.96 40.33 4.92 40.66 9 41 C8.01 36.05 8.01 36.05 7 31 C5.77023438 31.02320313 4.54046875 31.04640625 3.2734375 31.0703125 C1.6406311 31.08908039 0.0078181 31.10727949 -1.625 31.125 C-2.43324219 31.14175781 -3.24148437 31.15851563 -4.07421875 31.17578125 C-8.80093815 31.21420986 -12.55387702 30.82737094 -17 29 C-14.65147472 27.82573736 -13.26225935 27.88491827 -10.6484375 27.90234375 C-9.79765625 27.90556641 -8.946875 27.90878906 -8.0703125 27.91210938 C-6.73613281 27.92467773 -6.73613281 27.92467773 -5.375 27.9375 C-4.4778125 27.94201172 -3.580625 27.94652344 -2.65625 27.95117188 C-0.43743352 27.96297409 1.78125018 27.97943845 4 28 C3.814375 27.030625 3.62875 26.06125 3.4375 25.0625 C3.293125 24.051875 3.14875 23.04125 3 22 C3.495 21.505 3.495 21.505 4 21 C3.690625 20.01 3.38125 19.02 3.0625 18 C1.91566793 14.02268878 1.43287644 10.11232621 1 6 C0.01 5.67 -0.98 5.34 -2 5 C-2 4.01 -2 3.02 -2 2 C-1.34 2 -0.68 2 0 2 C0 1.34 0 0.68 0 0 Z " fill="#506A61" transform="translate(80,130)"/>
<path d="M0 0 C3 2 3 2 4 5 C5.65 5 7.3 5 9 5 C7.66666667 6.33333333 6.33333333 7.66666667 5 9 C5.56589844 9.10957031 6.13179687 9.21914063 6.71484375 9.33203125 C7.44832031 9.49058594 8.18179688 9.64914063 8.9375 9.8125 C9.66839844 9.96332031 10.39929688 10.11414062 11.15234375 10.26953125 C11.76207031 10.51058594 12.37179688 10.75164063 13 11 C13.33 11.99 13.66 12.98 14 14 C13.01 14.495 13.01 14.495 12 15 C12.58803797 18.02419525 13.22678118 21.01758453 14 24 C14.7425 24.0825 15.485 24.165 16.25 24.25 C19.55023765 25.15006481 20.76970721 26.46208062 23 29 C23.66 29.66 24.32 30.32 25 31 C24.67 31.66 24.34 32.32 24 33 C24.99 33.495 24.99 33.495 26 34 C25.34 34 24.68 34 24 34 C24 34.99 24 35.98 24 37 C24.66 37 25.32 37 26 37 C26 36.34 26 35.68 26 35 C31.15171623 34.90961901 35.91913204 35.15318867 41 36 C39.02 36.495 39.02 36.495 37 37 C37.495 38.98 37.495 38.98 38 41 C40.64 41 43.28 41 46 41 C46 41.33 46 41.66 46 42 C42.35432287 42.08816905 38.70892526 42.14077948 35.0625 42.1875 C34.04091797 42.21263672 33.01933594 42.23777344 31.96679688 42.26367188 C24.89235571 42.33147802 17.28653363 42.18694171 11.9375 37 C11 35 11 35 11 32 C10.34515625 32.03480469 9.6903125 32.06960937 9.015625 32.10546875 C1.803974 32.31937365 -5.25022727 31.74280063 -12 29 C-12.33 28.01 -12.66 27.02 -13 26 C-12.44570313 25.75765625 -11.89140625 25.5153125 -11.3203125 25.265625 C-10.59585937 24.93046875 -9.87140625 24.5953125 -9.125 24.25 C-8.04605469 23.76273438 -8.04605469 23.76273438 -6.9453125 23.265625 C-4.47268876 21.65693004 -3.91487941 20.81782858 -3 18 C-2.63097636 15.08790601 -2.49168797 12.18178525 -2.375 9.25 C-2.31699219 8.06083984 -2.31699219 8.06083984 -2.2578125 6.84765625 C-2.163892 4.89880584 -2.08087178 2.94943549 -2 1 C-1.34 0.67 -0.68 0.34 0 0 Z " fill="#9F8641" transform="translate(40,49)"/>
<path d="M0 0 C1 1 1 1 1.1328125 3.58203125 C1.13023438 4.64808594 1.12765625 5.71414063 1.125 6.8125 C1.12886719 8.39998047 1.12886719 8.39998047 1.1328125 10.01953125 C1.02063661 12.53689017 0.7309121 14.60423255 0 17 C0.66 17 1.32 17 2 17 C2.03867188 16.12988281 2.03867188 16.12988281 2.078125 15.2421875 C2.47442527 9.78405202 3.32654191 6.28570111 7 2 C10.06215642 -0.49807497 11.2776098 -1.05556848 15.25 -0.75 C18 0 18 0 19 1 C19.82802867 7.21021505 17.68302347 11.62756867 15.09375 17.23046875 C13.75512275 20.12378377 13.75512275 20.12378377 14 24 C14.66 24.66 15.32 25.32 16 26 C20.17997492 39.23019585 19.36180564 52.31414037 18.2421875 65.953125 C17.57011017 72.98400708 17.57011017 72.98400708 18 80 C20.12827495 82.36953047 20.12827495 82.36953047 23 84 C24.48046875 85.67578125 24.48046875 85.67578125 25.875 87.5625 C26.30554688 88.14128906 26.73609375 88.72007813 27.1796875 89.31640625 C28 91 28 91 27 94 C24.36 90.37 21.72 86.74 19 83 C14.09795447 83.4805927 11.15004276 84.46386276 7 87 C5.20719161 87.75678957 3.39329561 88.46539421 1.5625 89.125 C0.20318359 89.62386719 0.20318359 89.62386719 -1.18359375 90.1328125 C-14.07703463 94.10277627 -26.51680868 92.28084408 -39 88 C-40.68416016 87.43925781 -40.68416016 87.43925781 -42.40234375 86.8671875 C-43.25957031 86.58101563 -44.11679687 86.29484375 -45 86 C-44.01 85.505 -44.01 85.505 -43 85 C-42.67 84.01 -42.34 83.02 -42 82 C-41.48010498 82.21221191 -40.96020996 82.42442383 -40.42456055 82.64306641 C-34.12384131 85.00298472 -28.50399812 85.47095145 -21.8125 85.375 C-20.8016333 85.36629883 -19.7907666 85.35759766 -18.74926758 85.34863281 C-8.74368195 85.1534643 7.46212192 84.53787808 15 77 C16.43149364 69.01865055 16.25097825 60.72723034 16.29516602 52.64086914 C16.30673686 51.17006855 16.32726866 49.69931159 16.35668945 48.22875977 C16.52815224 39.6144311 16.24499449 32.71777741 12 25 C10.9069412 21.69243246 10.77700422 20.59902789 11.99609375 17.32421875 C12.70958984 16.01904297 12.70958984 16.01904297 13.4375 14.6875 C13.91058594 13.80449219 14.38367188 12.92148437 14.87109375 12.01171875 C15.24363281 11.34785156 15.61617187 10.68398437 16 10 C14.05600216 10.15103828 14.05600216 10.15103828 12 11 C10.64897007 13.0720554 10.64897007 13.0720554 9.75 15.5625 C9.41484375 16.38878906 9.0796875 17.21507813 8.734375 18.06640625 C8.49203125 18.70449219 8.2496875 19.34257812 8 20 C6.68776504 16.06329512 7.75703744 13.87511856 9 10 C6.93597032 10.48705712 6.93597032 10.48705712 5 12 C4.18129815 15.56206661 4.18129815 15.56206661 4 19 C2.35 18.67 0.7 18.34 -1 18 C-1 12.72 -1 7.44 -1 2 C-2.65 2.33 -4.3 2.66 -6 3 C-8.30143236 6.45214853 -8.13833854 7.23479324 -7.625 11.1875 C-7.51414063 12.08855469 -7.40328125 12.98960938 -7.2890625 13.91796875 C-7.19367188 14.60503906 -7.09828125 15.29210937 -7 16 C-7.66 16 -8.32 16 -9 16 C-10.72194097 12.55611807 -10.37796284 8.77311176 -10 5 C-7.50073971 -0.45293154 -5.75252976 -1.47500763 0 0 Z " fill="#856135" transform="translate(96,5)"/>
<path d="M0 0 C2.475 0.495 2.475 0.495 5 1 C5.11138159 6.45769811 4.91657981 11.61509359 4 17 C4.78375 17.103125 5.5675 17.20625 6.375 17.3125 C9 18 9 18 11 21 C10.01 21.66 9.02 22.32 8 23 C8.66 23.99 9.32 24.98 10 26 C8.68 26 7.36 26 6 26 C6 26.99 6 27.98 6 29 C5.34 29 4.68 29 4 29 C4 30.98 4 32.96 4 35 C3.34 35 2.68 35 2 35 C1.67 34.34 1.34 33.68 1 33 C0.67 33.66 0.34 34.32 0 35 C-1.32 34.67 -2.64 34.34 -4 34 C-4 32.68 -4 31.36 -4 30 C-4.99 30 -5.98 30 -7 30 C-7.33 31.65 -7.66 33.3 -8 35 C-10.62113708 35 -12.50935112 34.68707555 -15 34 C-15 32.35 -15 30.7 -15 29 C-17.64 28.67 -20.28 28.34 -23 28 C-23 27.67 -23 27.34 -23 27 C-20.69 27 -18.38 27 -16 27 C-16 26.34 -16 25.68 -16 25 C-18.97 24.67 -21.94 24.34 -25 24 C-24.505 22.515 -24.505 22.515 -24 21 C-17.73 20.01 -11.46 19.02 -5 18 C-5 17.34 -5 16.68 -5 16 C-4.34 15.34 -3.68 14.68 -3 14 C-3.13185564 11.94429665 -3.13185564 11.94429665 -3.625 9.6875 C-4.16499175 5.92575969 -4.20512388 5.32422806 -2.0625 1.9375 C-1.381875 1.298125 -0.70125 0.65875 0 0 Z " fill="#A17843" transform="translate(91,6)"/>
<path d="M0 0 C0.33 0 0.66 0 1 0 C0.96519531 0.78503906 0.93039063 1.57007812 0.89453125 2.37890625 C0.73075762 8.73488294 0.67499011 13.49653535 4 19 C6.59429609 21.75924489 6.59429609 21.75924489 10 23 C11.66666667 23 13.33333333 23 15 23 C14.01 23.33 13.02 23.66 12 24 C12 24.66 12 25.32 12 26 C13.65 26 15.3 26 17 26 C17 25.34 17 24.68 17 24 C17.88260498 23.97494385 18.76520996 23.9498877 19.67456055 23.92407227 C22.96406615 23.8286647 26.25341182 23.72944807 29.54272461 23.62768555 C30.96357775 23.58450196 32.38447726 23.54281592 33.80541992 23.50268555 C35.8534947 23.44457905 37.90133965 23.38100362 39.94921875 23.31640625 C41.79519653 23.26141968 41.79519653 23.26141968 43.6784668 23.20532227 C46.5750515 23.02626841 49.2052635 22.77424789 52 22 C53.1740746 20.27081723 53.1740746 20.27081723 53.6875 18.125 C54.55880898 15.22776401 55.26620137 13.60069794 57 11 C57.66 11 58.32 11 59 11 C57.87548273 13.9719385 56.77706209 16.33440687 55 19 C54.93453102 21.51047485 54.93453102 21.51047485 56 24 C58.34346271 26.17477572 58.34346271 26.17477572 61 28 C62.0173873 28.98230498 63.02596117 29.97469597 64 31 C57.67741935 31.36476427 57.67741935 31.36476427 54.5625 29.6875 C53 28 53 28 53 25 C51.35 25.33 49.7 25.66 48 26 C48 26.66 48 27.32 48 28 C41.6221448 29.17293889 35.49678438 30.29530838 29 30 C29 30.99 29 31.98 29 33 C28.34 33 27.68 33 27 33 C27 33.99 27 34.98 27 36 C28.32 36.33 29.64 36.66 31 37 C30.67 38.32 30.34 39.64 30 41 C30 40.34 30 39.68 30 39 C29.20335937 38.84144531 28.40671875 38.68289062 27.5859375 38.51953125 C21.11810703 37.0953496 16.54969228 35.92883331 12 31 C12 30.34 12 29.68 12 29 C13.32 29 14.64 29 16 29 C11.71 27.35 7.42 25.7 3 24 C3.40992188 25.77246094 3.81984375 27.54492188 4.2421875 29.37109375 C4.78647803 31.72655795 5.33074776 34.08202695 5.875 36.4375 C6.14441406 37.60216797 6.41382813 38.76683594 6.69140625 39.96679688 C8.15550891 46.30529008 9.60029454 52.64696794 11 59 C10.34 59 9.68 59 9 59 C9.5259375 60.1446875 9.5259375 60.1446875 10.0625 61.3125 C11 64 11 64 10 67 C7 60.375 7 60.375 7 57 C7.66 57 8.32 57 9 57 C4.99105665 39.62982846 4.99105665 39.62982846 -3 24 C-2.67 23.34 -2.34 22.68 -2 22 C-0.515 22.99 -0.515 22.99 1 24 C0.21824485 19.15311808 -1.39844278 14.6233633 -3 10 C-2.34 10 -1.68 10 -1 10 C-0.67 6.7 -0.34 3.4 0 0 Z " fill="#2A2F33" transform="translate(51,99)"/>
<path d="M0 0 C2.875 0.25 2.875 0.25 6.02734375 1.66015625 C10.03125973 3.43394991 14.01132138 4.21735756 18.3125 4.9375 C19.04404297 5.06705078 19.77558594 5.19660156 20.52929688 5.33007812 C22.309877 5.64429815 24.09226583 5.94824068 25.875 6.25 C25.875 6.58 25.875 6.91 25.875 7.25 C21.42 7.745 21.42 7.745 16.875 8.25 C16.875 8.91 16.875 9.57 16.875 10.25 C18.1434375 10.188125 18.1434375 10.188125 19.4375 10.125 C23.88186242 10.28661318 27.88619229 11.25559615 31.875 13.25 C31.875 14.24 31.875 15.23 31.875 16.25 C31.20968262 16.21447021 30.54436523 16.17894043 29.85888672 16.14233398 C26.82289862 15.98400586 23.78650028 15.83566658 20.75 15.6875 C19.70328125 15.63142578 18.6565625 15.57535156 17.578125 15.51757812 C12.47433232 15.27530949 7.91609256 15.29170924 2.875 16.25 C1.885 15.92 0.895 15.59 -0.125 15.25 C0.08125 16.19875 0.2875 17.1475 0.5 18.125 C0.62375 19.15625 0.7475 20.1875 0.875 21.25 C0.215 21.91 -0.445 22.57 -1.125 23.25 C-1.455 20.28 -1.785 17.31 -2.125 14.25 C-3.62713641 17.17053002 -4.30737577 18.59424449 -3.41015625 21.8203125 C-3.00667969 22.66335937 -2.60320313 23.50640625 -2.1875 24.375 C-0.02506285 28.95018856 -0.02506285 28.95018856 -1.125 32.25 C-5.78662791 30.77790698 -5.78662791 30.77790698 -7.26171875 28.4765625 C-10.79982657 19.35112605 -6.75651515 9.70369099 -3.125 1.25 C-2.125 0.25 -2.125 0.25 0 0 Z " fill="#99A29F" transform="translate(53.125,90.75)"/>
<path d="M0 0 C0 1.32 0 2.64 0 4 C0.99 4 1.98 4 3 4 C3 4.66 3 5.32 3 6 C4.32 6 5.64 6 7 6 C8.25664978 8.90600261 9 10.79604584 9 14 C8.34 13.835 7.68 13.67 7 13.5 C3.26900206 12.87816701 -0.21873378 12.93591074 -4 13 C-4.33 13.66 -4.66 14.32 -5 15 C-6.65 15 -8.3 15 -10 15 C-8.68 14.67 -7.36 14.34 -6 14 C-6 13.34 -6 12.68 -6 12 C-7.65 12.33 -9.3 12.66 -11 13 C-11.33 13.99 -11.66 14.98 -12 16 C-13.093125 15.835 -14.18625 15.67 -15.3125 15.5 C-18.87525873 14.93281816 -18.87525873 14.93281816 -22 15 C-21.34 12.36 -20.68 9.72 -20 7 C-22.31 6.67 -24.62 6.34 -27 6 C-21.57677707 -0.93939278 -8.1026096 -0.5040794 0 0 Z " fill="#AE7B43" transform="translate(63,30)"/>
<path d="M0 0 C3.74215216 2.28093084 7.01958807 5.03917613 9 9 C10.98 9 12.96 9 15 9 C13.63016497 12.16115776 13.0109362 12.9927092 10 15 C2.63877966 17.23067283 -4.99488193 16.35878795 -12.1875 14.046875 C-14.52127922 12.69891631 -15.10390214 11.51379032 -16 9 C-15.8621042 5.62155301 -15.76599056 3.72959734 -13.2734375 1.35546875 C-9.07620924 -1.14700239 -4.70007332 -0.93224595 0 0 Z " fill="#BCBEAC" transform="translate(101,178)"/>
<path d="M0 0 C1.134375 0.020625 2.26875 0.04125 3.4375 0.0625 C4.47755702 3.44268531 4.51754482 6.5405279 4.4375 10.0625 C3.4475 10.3925 2.4575 10.7225 1.4375 11.0625 C1.1075 11.7225 0.7775 12.3825 0.4375 13.0625 C1.7575 13.0625 3.0775 13.0625 4.4375 13.0625 C4.1075 14.0525 3.7775 15.0425 3.4375 16.0625 C1.85125765 15.63566761 0.2685902 15.19553842 -1.3125 14.75 C-2.19421875 14.50636719 -3.0759375 14.26273438 -3.984375 14.01171875 C-6.5625 13.0625 -6.5625 13.0625 -8.625 11.4375 C-10.4578914 9.86961653 -10.4578914 9.86961653 -12.703125 9.98828125 C-13.39921875 10.11589844 -14.0953125 10.24351562 -14.8125 10.375 C-16.05 10.601875 -17.2875 10.82875 -18.5625 11.0625 C-18.2325 12.3825 -17.9025 13.7025 -17.5625 15.0625 C-16.2425 15.0625 -14.9225 15.0625 -13.5625 15.0625 C-13.5625 15.7225 -13.5625 16.3825 -13.5625 17.0625 C-12.9025 17.3925 -12.2425 17.7225 -11.5625 18.0625 C-14.5625 19.0625 -14.5625 19.0625 -17.10546875 18.6328125 C-20.21955174 16.64257186 -20.6163459 14.71414139 -21.42382812 11.19921875 C-21.57271484 10.45285156 -21.72160156 9.70648438 -21.875 8.9375 C-22.12733398 7.80634766 -22.12733398 7.80634766 -22.38476562 6.65234375 C-22.79659618 4.79322294 -23.18211312 2.92830825 -23.5625 1.0625 C-22.99217041 1.06773682 -22.42184082 1.07297363 -21.83422852 1.07836914 C-19.26449677 1.09908221 -16.69478253 1.1121419 -14.125 1.125 C-13.22716797 1.13337891 -12.32933594 1.14175781 -11.40429688 1.15039062 C-10.12329102 1.15522461 -10.12329102 1.15522461 -8.81640625 1.16015625 C-8.02564697 1.16539307 -7.2348877 1.17062988 -6.42016602 1.17602539 C-3.39427136 0.9911074 -3.71185073 0.06512019 0 0 Z " fill="#8DB9B7" transform="translate(106.5625,139.9375)"/>
<path d="M0 0 C0.495 1.485 0.495 1.485 1 3 C-2.66357835 7.12758544 -5.71965697 9.00505358 -10.9375 10.75 C-12.12214844 11.15734375 -13.30679688 11.5646875 -14.52734375 11.984375 C-27.81648979 15.87096439 -40.10881649 14.4207563 -53 10 C-54.12277344 9.62617187 -55.24554688 9.25234375 -56.40234375 8.8671875 C-57.25957031 8.58101562 -58.11679687 8.29484375 -59 8 C-58.34 7.67 -57.68 7.34 -57 7 C-56.67 6.01 -56.34 5.02 -56 4 C-55.22015747 4.31831787 -55.22015747 4.31831787 -54.42456055 4.64306641 C-48.12384131 7.00298472 -42.50399812 7.47095145 -35.8125 7.375 C-34.8016333 7.36629883 -33.7907666 7.35759766 -32.74926758 7.34863281 C-21.06608554 7.12074118 -10.68259339 4.84901128 0 0 Z " fill="#636863" transform="translate(110,83)"/>
<path d="M0 0 C0.76699219 0.32613281 1.53398438 0.65226563 2.32421875 0.98828125 C7.213448 2.33398834 11.76871031 2.25273622 16.8125 2.1875 C18.26172852 2.1865332 18.26172852 2.1865332 19.74023438 2.18554688 C24.20643305 2.56835016 24.20643305 2.56835016 28 1 C29.66617115 0.95936168 31.33388095 0.957279 33 1 C33.22245393 2.60226955 33.42746669 4.20696767 33.625 5.8125 C33.74101563 6.70582031 33.85703125 7.59914062 33.9765625 8.51953125 C34 11 34 11 32 14 C31.34 12.68 30.68 11.36 30 10 C29.67 10.33 29.34 10.66 29 11 C19.896548 12.08231266 11.10656416 12.1022843 2 11 C0.57741188 7.17679443 -0.24042276 4.08718695 0 0 Z " fill="#A9D5BC" transform="translate(89,160)"/>
<path d="M0 0 C4.04704581 0.72404774 7.89070402 1.83446287 11.8125 3.0625 C13.55466797 3.60583984 13.55466797 3.60583984 15.33203125 4.16015625 C16.65267578 4.57587891 16.65267578 4.57587891 18 5 C18 5.33 18 5.66 18 6 C15.03 5.67 12.06 5.34 9 5 C9 5.66 9 6.32 9 7 C9.99 7.33 10.98 7.66 12 8 C12.69802734 8.74443359 12.69802734 8.74443359 13.41015625 9.50390625 C15.85703285 11.80649529 18.51150502 11.80118602 21.74609375 12.27734375 C24.75393906 13.24173089 26.03160855 14.54371666 28 17 C29.08203125 19.69140625 29.08203125 19.69140625 29.8125 22.5625 C30.06644531 23.51253906 30.32039063 24.46257812 30.58203125 25.44140625 C31 28 31 28 30 31 C28 30 28 30 26.9296875 27.27734375 C26.58164063 26.17519531 26.23359375 25.07304687 25.875 23.9375 C25.34519531 22.28041016 25.34519531 22.28041016 24.8046875 20.58984375 C24.53914063 19.73519531 24.27359375 18.88054687 24 18 C23.34 18.66 22.68 19.32 22 20 C15.79487179 20.56410256 15.79487179 20.56410256 13.0625 18.625 C12 17 12 17 12 15 C11.21625 15.185625 10.4325 15.37125 9.625 15.5625 C7 16 7 16 5 15 C5 17.31 5 19.62 5 22 C4.67 22 4.34 22 4 22 C3.79503906 20.92878906 3.59007812 19.85757813 3.37890625 18.75390625 C3.10697291 17.35673149 2.83482648 15.95959819 2.5625 14.5625 C2.42779297 13.85544922 2.29308594 13.14839844 2.15429688 12.41992188 C1.71593102 8.91570736 1.71593102 8.91570736 0 6 C-0.04080783 4.00041636 -0.04254356 1.99954746 0 0 Z " fill="#82B4A3" transform="translate(54,123)"/>
<path d="M0 0 C5.25714847 1.89257345 7.86844606 4.52635151 11 9 C11.63671875 11.6953125 11.63671875 11.6953125 12 14 C8.56294295 14.14505175 5.12666967 14.23398014 1.6875 14.3125 C0.71103516 14.35439453 -0.26542969 14.39628906 -1.27148438 14.43945312 C-3.93399887 14.4852008 -6.37877036 14.4734901 -9 14 C-11.70856305 11.10144782 -12.01638452 9.81922585 -11.9375 5.875 C-11 3 -11 3 -9.375 1.125 C-6.03340868 -0.45785905 -3.66421912 -0.37905715 0 0 Z " fill="#C9D2B8" transform="translate(63,171)"/>
<path d="M0 0 C2 1 2 1 2.60546875 2.79296875 C3.68570033 8.83584836 3.77424659 14.16142488 0.34375 19.4296875 C-2.77285096 23.07176188 -6.47965409 25.49321803 -11 27 C-18.55998661 27.49386847 -25.30635475 27.82494014 -32 24 C-32 23.01 -32 22.02 -32 21 C-31.46632813 21.2165625 -30.93265625 21.433125 -30.3828125 21.65625 C-22.23410523 24.70144164 -14.16436932 25.33239564 -6 22 C-4.05678789 20.02656135 -4.05678789 20.02656135 -3 18 C-4.98 18.33 -6.96 18.66 -9 19 C-9.495 16.525 -9.495 16.525 -10 14 C-9.01 13.67 -8.02 13.34 -7 13 C-7.66 13 -8.32 13 -9 13 C-9.33 11.35 -9.66 9.7 -10 8 C-8.68 7.34 -7.36 6.68 -6 6 C-8.31 5.01 -10.62 4.02 -13 3 C-9.6176758 1.8725586 -6.49425016 1.60142073 -2.9609375 1.28125 C-1.00014887 1.20000011 -1.00014887 1.20000011 0 0 Z " fill="#A05546" transform="translate(119,169)"/>
<path d="M0 0 C0.33 0 0.66 0 1 0 C1.03867187 1.15628906 1.03867187 1.15628906 1.078125 2.3359375 C1.13484375 3.33882812 1.1915625 4.34171875 1.25 5.375 C1.29640625 6.37273438 1.3428125 7.37046875 1.390625 8.3984375 C1.72160885 11.1526477 1.72160885 11.1526477 4.046875 12.3515625 C4.69140625 12.56554688 5.3359375 12.77953125 6 13 C6 14.32 6 15.64 6 17 C6.66 17.33 7.32 17.66 8 18 C9.678298 19.31866272 11.34614767 20.65080468 13 22 C12.67 23.32 12.34 24.64 12 26 C11.34 26 10.68 26 10 26 C10.495 26.45375 10.99 26.9075 11.5 27.375 C13 29 13 29 13 31 C5.12930082 31.41832456 -2.6119319 31.00217483 -10 28 C-10.33 27.01 -10.66 26.02 -11 25 C-10.44570313 24.75765625 -9.89140625 24.5153125 -9.3203125 24.265625 C-8.59585937 23.93046875 -7.87140625 23.5953125 -7.125 23.25 C-6.04605469 22.76273438 -6.04605469 22.76273438 -4.9453125 22.265625 C-2.47268876 20.65693004 -1.91487941 19.81782858 -1 17 C-0.63097636 14.08790601 -0.49168797 11.18178525 -0.375 8.25 C-0.31699219 7.06083984 -0.31699219 7.06083984 -0.2578125 5.84765625 C-0.163892 3.89880584 -0.08087178 1.94943549 0 0 Z " fill="#8B8A40" transform="translate(38,50)"/>
<path d="M0 0 C1.32 0 2.64 0 4 0 C4.66 0.99 5.32 1.98 6 3 C9.2660882 5.16720034 12.17915928 5.31173854 16.04296875 5.44921875 C17.19861328 5.49240234 18.35425781 5.53558594 19.54492188 5.58007812 C20.74697266 5.61552734 21.94902344 5.65097656 23.1875 5.6875 C24.40115234 5.73455078 25.61480469 5.78160156 26.86523438 5.83007812 C31.43202475 6.0005821 31.43202475 6.0005821 36 6 C36.33 5.67 36.66 5.34 37 5 C38.155 4.855625 39.31 4.71125 40.5 4.5625 C42.2325 4.2840625 42.2325 4.2840625 44 4 C44.33 3.34 44.66 2.68 45 2 C45.66 2 46.32 2 47 2 C46.34 4.31 45.68 6.62 45 9 C40.9269597 9.97685365 37.131793 10.11545444 32.94921875 10.09765625 C32.29041214 10.0962413 31.63160553 10.09482635 30.95283508 10.09336853 C28.86434238 10.087805 26.77595989 10.07525947 24.6875 10.0625 C23.26497551 10.05748028 21.84244934 10.0529182 20.41992188 10.04882812 C16.94657923 10.03784757 13.47330039 10.02060835 10 10 C10.33 10.99 10.66 11.98 11 13 C5.125 12.125 5.125 12.125 4 11 C3.01 10.67 2.02 10.34 1 10 C-3.77272727 5.68181818 -3.77272727 5.68181818 -5 2 C-3.68 2 -2.36 2 -1 2 C-0.67 1.34 -0.34 0.68 0 0 Z " fill="#93939F" transform="translate(58,113)"/>
<path d="M0 0 C1.32 0 2.64 0 4 0 C4.33 1.32 4.66 2.64 5 4 C5.66 4 6.32 4 7 4 C8.93477538 8.47416806 9.29643023 11.30044042 8 16 C6.68 16.33 5.36 16.66 4 17 C3.87625 17.928125 3.87625 17.928125 3.75 18.875 C3 21 3 21 1.3125 22.375 C-1.96007486 23.25947969 -3.91007392 22.24911905 -7 21 C-7.99 20.67 -8.98 20.34 -10 20 C-9.67 18.02 -9.34 16.04 -9 14 C-8.37351562 13.79503906 -7.74703125 13.59007813 -7.1015625 13.37890625 C-6.28429687 13.10949219 -5.46703125 12.84007813 -4.625 12.5625 C-3.81289062 12.29566406 -3.00078125 12.02882813 -2.1640625 11.75390625 C0.01031799 11.04820271 0.01031799 11.04820271 2 10 C2 9.01 2 8.02 2 7 C0.35 6.67 -1.3 6.34 -3 6 C-3 5.01 -3 4.02 -3 3 C-2.01 2.67 -1.02 2.34 0 2 C0 1.34 0 0.68 0 0 Z " fill="#9FA6A4" transform="translate(115,102)"/>
<path d="M0 0 C8.25 0.33 16.5 0.66 25 1 C27 7 27 7 27 11 C25.56260487 11.02712066 24.12506137 11.04645067 22.6875 11.0625 C21.48673828 11.07990234 21.48673828 11.07990234 20.26171875 11.09765625 C18 11 18 11 15 10 C15 9.34 15 8.68 15 8 C10.38 8 5.76 8 1 8 C0.67 5.36 0.34 2.72 0 0 Z " fill="#9DC5AD" transform="translate(62,160)"/>
<path d="M0 0 C0 0.66 0 1.32 0 2 C-5.56550382 3.47013308 -11.08674946 4.56081972 -16.77734375 5.4375 C-17.87755859 5.7159375 -17.87755859 5.7159375 -19 6 C-19.33 6.66 -19.66 7.32 -20 8 C-18.329375 7.9690625 -18.329375 7.9690625 -16.625 7.9375 C-13 8 -13 8 -11 9 C-11 9.66 -11 10.32 -11 11 C-11.66 11.33 -12.32 11.66 -13 12 C-12.01 12.33 -11.02 12.66 -10 13 C-10 14.65 -10 16.3 -10 18 C-11.65 18.33 -13.3 18.66 -15 19 C-15.33 17.35 -15.66 15.7 -16 14 C-17.32 14 -18.64 14 -20 14 C-20 13.34 -20 12.68 -20 12 C-20.99 12 -21.98 12 -23 12 C-23 10.68 -23 9.36 -23 8 C-30.22754451 9.08010999 -37.4117363 10.21529168 -44.5625 11.73046875 C-47.26659587 12.02947935 -49.374469 11.6610712 -52 11 C-49.28022226 9.5369455 -46.80097144 8.59853792 -43.78564453 7.94677734 C-42.96444122 7.76674164 -42.14323792 7.58670593 -41.29714966 7.4012146 C-39.97830276 7.12140244 -39.97830276 7.12140244 -38.6328125 6.8359375 C-37.72046844 6.63900299 -36.80812439 6.44206848 -35.86813354 6.23916626 C-33.94050227 5.82470051 -32.01227219 5.41301133 -30.08349609 5.00390625 C-27.14098201 4.3783974 -24.20132375 3.74058566 -21.26171875 3.1015625 C-19.38557649 2.69977381 -17.5092792 2.29870823 -15.6328125 1.8984375 C-14.7576297 1.7078476 -13.8824469 1.51725769 -12.98074341 1.32089233 C-8.57383905 0.39568323 -4.53310038 -0.22430124 0 0 Z " fill="#292112" transform="translate(86,22)"/>
<path d="M0 0 C2.475 0.495 2.475 0.495 5 1 C5 2.32 5 3.64 5 5 C3.68 5.33 2.36 5.66 1 6 C1 6.66 1 7.32 1 8 C-0.32 8 -1.64 8 -3 8 C-3 8.66 -3 9.32 -3 10 C-3.66 10 -4.32 10 -5 10 C-5 11.32 -5 12.64 -5 14 C-8.69375878 15.23125293 -12.15487401 15.46420032 -16 15 C-18.5 13.5 -18.5 13.5 -20 12 C-19.67 10.35 -19.34 8.7 -19 7 C-18.11957031 6.80664062 -17.23914063 6.61328125 -16.33203125 6.4140625 C-15.17058594 6.15367188 -14.00914063 5.89328125 -12.8125 5.625 C-11.08966797 5.24214844 -11.08966797 5.24214844 -9.33203125 4.8515625 C-6.39422968 4.10075272 -3.73259152 3.3088464 -1 2 C-0.67 1.34 -0.34 0.68 0 0 Z " fill="#AC6840" transform="translate(90,70)"/>
<path d="M0 0 C2 1 2 1 3.125 3.3125 C4.68315769 9.87902167 5.51081016 17.11847413 2.0625 23.1875 C0 26 0 26 -1 27 C-1.1465993 29.18198706 -1.22751562 31.36844152 -1.28125 33.5546875 C-1.29965942 34.21203888 -1.31806885 34.86939026 -1.33703613 35.54666138 C-1.3959428 37.65601423 -1.44866458 39.76545011 -1.5 41.875 C-1.56770712 44.64339848 -1.64145184 47.41154219 -1.71875 50.1796875 C-1.74904297 51.41444824 -1.77933594 52.64920898 -1.81054688 53.92138672 C-2 57 -2 57 -3 60 C-2.34 60 -1.68 60 -1 60 C-1 63.63 -1 67.26 -1 71 C-1.33 71 -1.66 71 -2 71 C-2 68.03 -2 65.06 -2 62 C-3.15628906 62.48533203 -3.15628906 62.48533203 -4.3359375 62.98046875 C-9.15814935 64.32225691 -13.64458545 64.32969756 -18.625 64.3125 C-20.03652344 64.33666992 -20.03652344 64.33666992 -21.4765625 64.36132812 C-22.8378125 64.36229492 -22.8378125 64.36229492 -24.2265625 64.36328125 C-25.04721191 64.36626221 -25.86786133 64.36924316 -26.71337891 64.37231445 C-29.49563631 63.91929902 -30.89535938 62.82714209 -33 61 C-32.25838623 61.00523682 -31.51677246 61.01047363 -30.75268555 61.01586914 C-27.39763229 61.03663614 -24.04259256 61.0496593 -20.6875 61.0625 C-19.52025391 61.07087891 -18.35300781 61.07925781 -17.15039062 61.08789062 C-16.03212891 61.09111328 -14.91386719 61.09433594 -13.76171875 61.09765625 C-12.2142395 61.10551147 -12.2142395 61.10551147 -10.63549805 61.11352539 C-7.89053726 61.11635 -7.89053726 61.11635 -5 60 C-4.97494385 59.13197754 -4.9498877 58.26395508 -4.92407227 57.36962891 C-4.82900516 54.15286837 -4.72976797 50.93627151 -4.62768555 47.71972656 C-4.58434154 46.3268741 -4.54266604 44.93396869 -4.50268555 43.54101562 C-4.44497068 41.54023349 -4.38078131 39.53964141 -4.31640625 37.5390625 C-4.27974854 36.33459473 -4.24309082 35.13012695 -4.20532227 33.88916016 C-4 31 -4 31 -3 29 C-3.66 28.67 -4.32 28.34 -5 28 C-4.57847656 27.46890625 -4.15695313 26.9378125 -3.72265625 26.390625 C-3.17480469 25.68421875 -2.62695312 24.9778125 -2.0625 24.25 C-1.24458984 23.20585938 -1.24458984 23.20585938 -0.41015625 22.140625 C2.80847386 17.25472665 2.64617669 11.3039295 1.55078125 5.703125 C1.07296926 3.79187705 0.54121966 1.89426881 0 0 Z " fill="#344136" transform="translate(124,99)"/>
<path d="M0 0 C0 0.99 0 1.98 0 3 C-1.49986709 4.2126585 -3.00605118 5.4226455 -4.58984375 6.5234375 C-6.49632253 8.51969506 -6.6451604 10.31399899 -7 13 C-14.7558343 14.70994772 -22.06603268 15.24923458 -30 15 C-30.33 14.01 -30.66 13.02 -31 12 C-26.38 11.67 -21.76 11.34 -17 11 C-16.67 10.01 -16.34 9.02 -16 8 C-15.34 8 -14.68 8 -14 8 C-14 6.02 -14 4.04 -14 2 C-9.126739 0.4087311 -5.19209404 -0.21192221 0 0 Z " fill="#9A5242" transform="translate(91,173)"/>
<path d="M0 0 C1.2065625 0.0309375 1.2065625 0.0309375 2.4375 0.0625 C1.4475 0.7225 0.4575 1.3825 -0.5625 2.0625 C-0.46710937 2.77535156 -0.37171875 3.48820312 -0.2734375 4.22265625 C0.40869249 10.11594207 0.54108772 14.49417955 -1.5625 20.0625 C-1.8925 20.0625 -2.2225 20.0625 -2.5625 20.0625 C-2.5625 17.7525 -2.5625 15.4425 -2.5625 13.0625 C-4.0092203 15.5454275 -4.0092203 15.5454275 -4.5625 19.0625 C-3.71168422 21.76583091 -2.6313009 24.23681066 -1.41015625 26.79296875 C-0.5625 29.0625 -0.5625 29.0625 -1.5625 32.0625 C-6.22412791 30.59040698 -6.22412791 30.59040698 -7.69921875 28.2890625 C-11.23732657 19.16362605 -7.19401515 9.51619099 -3.5625 1.0625 C-2.5625 0.0625 -2.5625 0.0625 0 0 Z " fill="#97A19B" transform="translate(53.5625,90.9375)"/>
<path d="M0 0 C0.495 1.485 0.495 1.485 1 3 C-4.80150265 9.47634911 -12.51346351 12.45339612 -21.13671875 13.3125 C-23.44955457 13.3125 -25.70053857 13.23842342 -28 13 C-28 12.67 -28 12.34 -28 12 C-26.35 12 -24.7 12 -23 12 C-23 11.01 -23 10.02 -23 9 C-24.65 9 -26.3 9 -28 9 C-28.33 9.66 -28.66 10.32 -29 11 C-29 10.34 -29 9.68 -29 9 C-31.64 9 -34.28 9 -37 9 C-37 8.67 -37 8.34 -37 8 C-35.83984375 7.89042969 -34.6796875 7.78085938 -33.484375 7.66796875 C-21.85675283 6.51181668 -10.66082904 5.08812295 0 0 Z " fill="#4F4C41" transform="translate(110,83)"/>
<path d="M0 0 C1.60155938 0.71420891 3.20593333 1.42212708 4.8125 2.125 C6.20873879 2.74909369 7.60470871 3.37379084 9 4 C9 5.32 9 6.64 9 8 C7 10 7 10 3.3046875 10.1953125 C1.82799892 10.182009 0.35137642 10.15814835 -1.125 10.125 C-1.87910156 10.11597656 -2.63320312 10.10695312 -3.41015625 10.09765625 C-5.27357254 10.0740687 -7.13682593 10.03819719 -9 10 C-9 9.34 -9 8.68 -9 8 C-9.66 7.67 -10.32 7.34 -11 7 C-9.35 7 -7.7 7 -6 7 C-6 6.01 -6 5.02 -6 4 C-7.32 4 -8.64 4 -10 4 C-10.33 2.68 -10.66 1.36 -11 0 C-6.40357783 -1.9240837 -4.43063445 -2.26683623 0 0 Z " fill="#94B1B3" transform="translate(99,151)"/>
<path d="M0 0 C0.99 0.33 1.98 0.66 3 1 C2.67 11.23 2.34 21.46 2 32 C0.02 32.495 0.02 32.495 -2 33 C-2 23.43 -2 13.86 -2 4 C-4.97 4 -7.94 4 -11 4 C-10.67 3.34 -10.34 2.68 -10 2 C-9.0925 2.04125 -8.185 2.0825 -7.25 2.125 C-4.0398182 2.00153147 -2.75469626 1.4248429 0 0 Z " fill="#688C7D" transform="translate(118,127)"/>
<path d="M0 0 C1 3 1 3 -0.06640625 5.33984375 C-1.06332606 7.07078807 -2.0633263 8.79996192 -3.06640625 10.52734375 C-4.2796045 12.93013694 -4.2796045 12.93013694 -3.25 15.078125 C-2.63125 16.02945312 -2.63125 16.02945312 -2 17 C-1.45647318 18.2612943 -0.93541704 19.53251432 -0.4375 20.8125 C-0.18871094 21.43769531 0.06007813 22.06289063 0.31640625 22.70703125 C3.33346742 32.82711642 2.37232463 44.38198983 1.5 54.8125 C0.57507423 63.41287512 0.57507423 63.41287512 1 72 C3.12827495 74.36953047 3.12827495 74.36953047 6 76 C7.48046875 77.67578125 7.48046875 77.67578125 8.875 79.5625 C9.30554688 80.14128906 9.73609375 80.72007813 10.1796875 81.31640625 C11 83 11 83 10 86 C9.49210937 85.21753906 8.98421875 84.43507813 8.4609375 83.62890625 C7.77257812 82.61699219 7.08421875 81.60507813 6.375 80.5625 C5.70210937 79.55316406 5.02921875 78.54382813 4.3359375 77.50390625 C1.56560381 74.53436796 -0.01905922 74.22243079 -4 74 C-3.01 73.505 -3.01 73.505 -2 73 C-0.53303193 63.64996667 -0.75772596 53.79813976 -0.70483398 44.33911133 C-0.69320508 42.89565311 -0.67258553 41.45224138 -0.64331055 40.0090332 C-0.47131053 31.46380314 -0.79163516 24.65703506 -5 17 C-6.24534994 13.44111293 -6.17646229 12.45222009 -4.78515625 8.88671875 C-4.21667969 7.83097656 -3.64820312 6.77523438 -3.0625 5.6875 C-2.49660156 4.61886719 -1.93070312 3.55023437 -1.34765625 2.44921875 C-0.90292969 1.64097656 -0.45820312 0.83273437 0 0 Z " fill="#3B2B19" transform="translate(113,13)"/>
<path d="M0 0 C10.55808656 -0.3690205 10.55808656 -0.3690205 15 2 C15 3.32 15 4.64 15 6 C14.34 6 13.68 6 13 6 C13 7.98 13 9.96 13 12 C12.34 12 11.68 12 11 12 C10.67 11.34 10.34 10.68 10 10 C9.67 10.66 9.34 11.32 9 12 C7.68 11.67 6.36 11.34 5 11 C5 9.68 5 8.36 5 7 C3.68 7.33 2.36 7.66 1 8 C0.67 7.34 0.34 6.68 0 6 C0.33 5.34 0.66 4.68 1 4 C0.34 3.67 -0.32 3.34 -1 3 C-0.67 2.01 -0.34 1.02 0 0 Z " fill="#8A6539" transform="translate(82,29)"/>
<path d="M0 0 C0 1.32 0 2.64 0 4 C0.99 4 1.98 4 3 4 C2.34 2.68 1.68 1.36 1 0 C3.9375 0.75 3.9375 0.75 7 2 C7.875 4.125 7.875 4.125 8 6 C4.44034019 8.37310654 2.78037776 8.26915041 -1.4375 8.25 C-2.57058594 8.25515625 -3.70367187 8.2603125 -4.87109375 8.265625 C-7.83525691 8.01398568 -9.50313671 7.54596941 -12 6 C-11.67 4.02 -11.34 2.04 -11 0 C-6.94952424 -1.35015859 -4.2079832 -0.62084998 0 0 Z M-2 3 C-1 7 -1 7 -1 7 Z " fill="#CFCDB8" transform="translate(97,181)"/>
<path d="M0 0 C6.93 0 13.86 0 21 0 C21 0.66 21 1.32 21 2 C16.71 2.66 12.42 3.32 8 4 C8 4.66 8 5.32 8 6 C6.33333333 7.66666667 4.66666667 9.33333333 3 11 C-1.80172134 9.89191046 -4.91161335 8.95313492 -8 5 C-8 4.34 -8 3.68 -8 3 C-5.03 3 -2.06 3 1 3 C0.67 2.01 0.34 1.02 0 0 Z " fill="#585F61" transform="translate(71,125)"/>
<path d="M0 0 C2 1 2 1 2.60546875 2.79296875 C3.68570033 8.83584836 3.77424659 14.16142488 0.34375 19.4296875 C-2.77285096 23.07176188 -6.47965409 25.49321803 -11 27 C-18.55998661 27.49386847 -25.30635475 27.82494014 -32 24 C-32 23.01 -32 22.02 -32 21 C-31.46632813 21.2165625 -30.93265625 21.433125 -30.3828125 21.65625 C-22.24165447 24.69862048 -14.1971678 25.37530439 -6 22 C-3.46314312 19.7940375 -1.50511778 18.01023556 0 15 C-0.66 14.67 -1.32 14.34 -2 14 C-1.01 13.34 -0.02 12.68 1 12 C1.36362818 9.79274927 1.36362818 9.79274927 1.1875 7.375 C1.16042969 6.55773437 1.13335937 5.74046875 1.10546875 4.8984375 C1.05326172 3.95871094 1.05326172 3.95871094 1 3 C-1.64 3.33 -4.28 3.66 -7 4 C-6.401875 3.71125 -5.80375 3.4225 -5.1875 3.125 C-2.80672208 1.95257974 -2.80672208 1.95257974 0 0 Z " fill="#333523" transform="translate(119,169)"/>
<path d="M0 0 C0.598125 0.185625 1.19625 0.37125 1.8125 0.5625 C4.16408762 1.22093687 4.16408762 1.22093687 7 0 C7.33 0.66 7.66 1.32 8 2 C15.43795645 4.59955334 23.17208238 5.55313069 31 6 C32.49821059 9.37097383 33 11.20442119 33 15 C32.34 15 31.68 15 31 15 C28.27072787 22.53798969 26.57532681 30.14571103 25 38 C24.67 38 24.34 38 24 38 C23.1552762 29.55276204 26.08080156 21.16902654 30.2265625 13.828125 C31.2062257 11.51255743 30.82976834 10.32335135 30 8 C29.42894531 8.03480469 28.85789062 8.06960937 28.26953125 8.10546875 C18.20279588 8.44156007 8.43153577 6.68638459 0 1 C0 0.67 0 0.34 0 0 Z " fill="#202419" transform="translate(20,75)"/>
<path d="M0 0 C-0.5775 0.2475 -1.155 0.495 -1.75 0.75 C-4.4764021 2.26466783 -6.14944008 3.46404752 -8 6 C-7.85387105 9.69432511 -7.85387105 9.69432511 -7 13 C-1.77017132 14.74327623 3.14614749 15.38229135 8.64453125 15.75390625 C11 16 11 16 13 17 C14.54023996 17.06950541 16.08334988 17.08452357 17.625 17.0625 C18.44226563 17.05347656 19.25953125 17.04445312 20.1015625 17.03515625 C20.72804688 17.02355469 21.35453125 17.01195312 22 17 C21.67 17.66 21.34 18.32 21 19 C12.68983775 20.62944358 1.68889117 21.99335017 -6 18 C-8.85573062 14.75835984 -10.26841013 12.15541961 -10.5 7.875 C-10 4 -10 4 -8.375 1.5 C-5.39901677 -0.37956836 -3.45669582 -0.31424507 0 0 Z " fill="#1E2616" transform="translate(60,170)"/>
<path d="M0 0 C1.2065625 0.0309375 1.2065625 0.0309375 2.4375 0.0625 C2.65995393 1.66476955 2.86496669 3.26946767 3.0625 4.875 C3.23652344 6.21498047 3.23652344 6.21498047 3.4140625 7.58203125 C3.4375 10.0625 3.4375 10.0625 1.4375 13.0625 C0.7775 11.7425 0.1175 10.4225 -0.5625 9.0625 C-0.8925 9.3925 -1.2225 9.7225 -1.5625 10.0625 C-4.02881957 10.35386711 -6.46262105 10.5774945 -8.9375 10.75 C-9.62328125 10.80994141 -10.3090625 10.86988281 -11.015625 10.93164062 C-14.8426485 11.20340397 -16.27596184 11.25352544 -19.5625 9.0625 C-14.9425 8.7325 -10.3225 8.4025 -5.5625 8.0625 C-5.8925 7.4025 -6.2225 6.7425 -6.5625 6.0625 C-6.2325 5.4025 -5.9025 4.7425 -5.5625 4.0625 C-10.5125 3.7325 -15.4625 3.4025 -20.5625 3.0625 C-20.5625 2.7325 -20.5625 2.4025 -20.5625 2.0625 C-18.73912109 1.97162109 -18.73912109 1.97162109 -16.87890625 1.87890625 C-15.29425772 1.79451668 -13.70962298 1.7098679 -12.125 1.625 C-11.32255859 1.58568359 -10.52011719 1.54636719 -9.69335938 1.50585938 C-6.13718939 1.3107952 -3.25169171 0.07930955 0 0 Z " fill="#94B8A2" transform="translate(119.5625,160.9375)"/>
<path d="M0 0 C0.66 0 1.32 0 2 0 C1.34 2.31 0.68 4.62 0 7 C-4.15626368 8.00926479 -8.04365094 8.10239579 -12.3125 8.0625 C-13.56675781 8.05347656 -14.82101563 8.04445313 -16.11328125 8.03515625 C-17.06589844 8.02355469 -18.01851562 8.01195313 -19 8 C-19 7.34 -19 6.68 -19 6 C-23.95 5.67 -28.9 5.34 -34 5 C-34 4.67 -34 4.34 -34 4 C-33.2479126 4.00523682 -32.4958252 4.01047363 -31.72094727 4.01586914 C-28.33480658 4.03657227 -24.94867916 4.04963877 -21.5625 4.0625 C-20.37849609 4.07087891 -19.19449219 4.07925781 -17.97460938 4.08789062 C-16.84990234 4.09111328 -15.72519531 4.09433594 -14.56640625 4.09765625 C-13.00321655 4.10551147 -13.00321655 4.10551147 -11.40844727 4.11352539 C-9.04871253 4.27305556 -9.04871253 4.27305556 -8 3 C-6.845 2.855625 -5.69 2.71125 -4.5 2.5625 C-3.345 2.376875 -2.19 2.19125 -1 2 C-0.67 1.34 -0.34 0.68 0 0 Z " fill="#9797A2" transform="translate(103,115)"/>
<path d="M0 0 C0 0.66 0 1.32 0 2 C1.670625 1.9690625 1.670625 1.9690625 3.375 1.9375 C7 2 7 2 9 3 C9 3.66 9 4.32 9 5 C8.01 5.495 8.01 5.495 7 6 C7.99 6.33 8.98 6.66 10 7 C10 8.65 10 10.3 10 12 C8.35 12.33 6.7 12.66 5 13 C4.67 11.35 4.34 9.7 4 8 C2.68 8 1.36 8 0 8 C0 7.34 0 6.68 0 6 C-0.99 6 -1.98 6 -3 6 C-3 4.68 -3 3.36 -3 2 C-4.98 2 -6.96 2 -9 2 C-9 1.67 -9 1.34 -9 1 C-5.846632 0.29925156 -3.27275026 0 0 0 Z " fill="#795B38" transform="translate(66,28)"/>
<path d="M0 0 C0.33 0.99 0.66 1.98 1 3 C5.62 3 10.24 3 15 3 C15 3.33 15 3.66 15 4 C11.7 4.33 8.4 4.66 5 5 C5.969375 5.12375 6.93875 5.2475 7.9375 5.375 C9.4534375 5.684375 9.4534375 5.684375 11 6 C11.33 6.66 11.66 7.32 12 8 C13.65 7.67 15.3 7.34 17 7 C16.67 7.66 16.34 8.32 16 9 C15.34 9 14.68 9 14 9 C14 10.65 14 12.3 14 14 C12.68 14 11.36 14 10 14 C9.46375 13.2575 8.9275 12.515 8.375 11.75 C4.96992743 7.80728439 0.84401001 6.65472861 -4 5 C-2.68 4.67 -1.36 4.34 0 4 C0 2.68 0 1.36 0 0 Z " fill="#515B43" transform="translate(62,165)"/>
<path d="M0 0 C0.66 0 1.32 0 2 0 C6 5.41176471 6 5.41176471 6 8 C5.34 8 4.68 8 4 8 C3.67 8.99 3.34 9.98 3 11 C0.36 11.33 -2.28 11.66 -5 12 C-4.67 10.68 -4.34 9.36 -4 8 C-4.99 7.67 -5.98 7.34 -7 7 C-5.37660195 5.29115995 -3.70680947 3.62553283 -2 2 C-1.34 2 -0.68 2 0 2 C0 1.34 0 0.68 0 0 Z " fill="#A9ABAA" transform="translate(99,107)"/>
<path d="M0 0 C3.80979086 0.9357381 5.14222468 1.8738586 7.5625 4.875 C6.9025 6.525 6.2425 8.175 5.5625 9.875 C2.5925 9.38 2.5925 9.38 -0.4375 8.875 C-0.7675 7.885 -1.0975 6.895 -1.4375 5.875 C-2.75397119 5.17562468 -4.08772151 4.50770867 -5.4375 3.875 C-5.7675 3.215 -6.0975 2.555 -6.4375 1.875 C-3.4375 -0.125 -3.4375 -0.125 0 0 Z " fill="#96ADB7" transform="translate(71.4375,145.125)"/>
<path d="M0 0 C2.31 0 4.62 0 7 0 C6.67 1.65 6.34 3.3 6 5 C6.99 5.33 7.98 5.66 9 6 C8.34 7.32 7.68 8.64 7 10 C8.32 11.32 9.64 12.64 11 14 C8.69 13.67 6.38 13.34 4 13 C4 12.01 4 11.02 4 10 C3.34 10 2.68 10 2 10 C2 9.34 2 8.68 2 8 C1.34 8 0.68 8 0 8 C0 5.36 0 2.72 0 0 Z " fill="#95AFB8" transform="translate(59,138)"/>
<path d="M0 0 C7.89957062 -0.27990605 15.2472493 0.48462814 23 2 C20.07034088 4.92965912 17.319947 5.94133569 13.1875 6.125 C12.465625 6.08375 11.74375 6.0425 11 6 C11 7.98 11 9.96 11 12 C10.01 12.33 9.02 12.66 8 13 C7.67 12.01 7.34 11.02 7 10 C7.99 10 8.98 10 10 10 C10 8.35 10 6.7 10 5 C10.66 4.67 11.32 4.34 12 4 C11.01 3.67 10.02 3.34 9 3 C8.67 3.66 8.34 4.32 8 5 C7.67 4.01 7.34 3.02 7 2 C6.401875 2.226875 5.80375 2.45375 5.1875 2.6875 C4.465625 2.790625 3.74375 2.89375 3 3 C1.36328125 1.51953125 1.36328125 1.51953125 0 0 Z " fill="#3D2D21" transform="translate(66,169)"/>
<path d="M0 0 C1 1 1 1 1.1328125 3.58203125 C1.13023438 4.64808594 1.12765625 5.71414063 1.125 6.8125 C1.12757812 7.87082031 1.13015625 8.92914063 1.1328125 10.01953125 C1.02063661 12.53689017 0.7309121 14.60423255 0 17 C0.66 17 1.32 17 2 17 C2.33 14.03 2.66 11.06 3 8 C3.66 8 4.32 8 5 8 C4.67 11.63 4.34 15.26 4 19 C2.35 18.67 0.7 18.34 -1 18 C-1 12.72 -1 7.44 -1 2 C-2.65 2.33 -4.3 2.66 -6 3 C-8.30143236 6.45214853 -8.13833854 7.23479324 -7.625 11.1875 C-7.51414062 12.08855469 -7.40328125 12.98960938 -7.2890625 13.91796875 C-7.19367188 14.60503906 -7.09828125 15.29210937 -7 16 C-7.66 16 -8.32 16 -9 16 C-10.72194097 12.55611807 -10.37796284 8.77311176 -10 5 C-7.50073971 -0.45293154 -5.75252976 -1.47500763 0 0 Z " fill="#332817" transform="translate(96,5)"/>
<path d="M0 0 C0.95895305 4.14569024 1.9170492 8.29157807 2.875 12.4375 C3.14441406 13.60216797 3.41382813 14.76683594 3.69140625 15.96679688 C5.15550891 22.30529008 6.60029454 28.64696794 8 35 C7.34 35 6.68 35 6 35 C6.5259375 36.1446875 6.5259375 36.1446875 7.0625 37.3125 C8 40 8 40 7 43 C4 36.375 4 36.375 4 33 C4.66 33 5.32 33 6 33 C2.87284908 21.26935576 2.87284908 21.26935576 -0.75 9.6875 C-1.74011509 6.76666048 -2.51030115 4.03613286 -3 1 C-1 0 -1 0 0 0 Z " fill="#243626" transform="translate(54,123)"/>
<path d="M0 0 C1.35439668 2.70879335 1.06501451 5.00933268 1 8 C-2.375 8.125 -2.375 8.125 -6 8 C-6.66 7.34 -7.32 6.68 -8 6 C-7.34 6 -6.68 6 -6 6 C-6.79299706 3.82961523 -6.79299706 3.82961523 -8.84765625 3.3671875 C-9.94400391 3.12355469 -9.94400391 3.12355469 -11.0625 2.875 C-11.79597656 2.70742187 -12.52945313 2.53984375 -13.28515625 2.3671875 C-13.85105469 2.24601563 -14.41695313 2.12484375 -15 2 C-15 1.67 -15 1.34 -15 1 C-13.43784452 0.83013455 -11.8752548 0.66426036 -10.3125 0.5 C-9.44238281 0.4071875 -8.57226562 0.314375 -7.67578125 0.21875 C-5.10276661 0.00840136 -2.58015636 -0.03719144 0 0 Z " fill="#A8D5BB" transform="translate(87,161)"/>
<path d="M0 0 C3.19435275 0.70119938 4.72062695 2.18926851 6.69140625 4.76171875 C8.166857 7.81186582 7.3837673 10.4037796 6.5625 13.5625 C6.2325 12.9025 5.9025 12.2425 5.5625 11.5625 C3.53786745 10.91036708 3.53786745 10.91036708 1.5625 10.5625 C1.8925 8.5825 2.2225 6.6025 2.5625 4.5625 C1.634375 4.76875 0.70625 4.975 -0.25 5.1875 C-3.4375 5.5625 -3.4375 5.5625 -6.4375 3.5625 C-4.31509447 1.67591731 -2.78606081 0.64293711 0 0 Z " fill="#9DA5A2" transform="translate(112.4375,86.4375)"/>
<path d="M0 0 C-4.29 0.66 -8.58 1.32 -13 2 C-13 2.33 -13 2.66 -13 3 C-15.31 3 -17.62 3 -20 3 C-20.33 1.35 -20.66 -0.3 -21 -2 C-13.45308732 -3.23494935 -6.95546743 -3.47773371 0 0 Z " fill="#2C1E15" transform="translate(111,174)"/>
<path d="M0 0 C-0.33 1.32 -0.66 2.64 -1 4 C-8.78207056 6.07521882 -16.3908239 5.2545707 -24 3 C-24 2.34 -24 1.68 -24 1 C-22.81921875 1.01160156 -21.6384375 1.02320313 -20.421875 1.03515625 C-18.86458492 1.04453752 -17.30729312 1.05363736 -15.75 1.0625 C-14.97269531 1.07087891 -14.19539063 1.07925781 -13.39453125 1.08789062 C-12.64042969 1.09111328 -11.88632813 1.09433594 -11.109375 1.09765625 C-10.41811523 1.10289307 -9.72685547 1.10812988 -9.01464844 1.11352539 C-5.89007753 0.9374559 -3.16324114 0 0 0 Z " fill="#A7B897" transform="translate(112,189)"/>
<path d="M0 0 C0.66 0 1.32 0 2 0 C2 0.66 2 1.32 2 2 C2.66 2 3.32 2 4 2 C4.33 2.99 4.66 3.98 5 5 C5.66 5.33 6.32 5.66 7 6 C7 6.66 7 7.32 7 8 C7.66 8.33 8.32 8.66 9 9 C9.625 11.0625 9.625 11.0625 10 13 C9.21625 12.979375 8.4325 12.95875 7.625 12.9375 C5.01885039 12.81315937 5.01885039 12.81315937 3 14 C2.67 14.99 2.34 15.98 2 17 C1.67 15.35 1.34 13.7 1 12 C1.66 12 2.32 12 3 12 C2.7834375 11.38511719 2.566875 10.77023438 2.34375 10.13671875 C2.0653125 9.32847656 1.786875 8.52023438 1.5 7.6875 C1.2215625 6.88699219 0.943125 6.08648437 0.65625 5.26171875 C0 3 0 3 0 0 Z " fill="#80AF9D" transform="translate(59,146)"/>
<path d="M0 0 C1.58323688 -0.027193 3.16661062 -0.04648306 4.75 -0.0625 C6.07257813 -0.07990234 6.07257813 -0.07990234 7.421875 -0.09765625 C10 0 10 0 14 1 C14.33 3.97 14.66 6.94 15 10 C14.67 8.68 14.34 7.36 14 6 C12.8553125 6.2784375 12.8553125 6.2784375 11.6875 6.5625 C9 7 9 7 6 6 C6 7.65 6 9.3 6 11 C5.34 11 4.68 11 4 11 C3.67 9.35 3.34 7.7 3 6 C4.32 5.34 5.64 4.68 7 4 C4.69 3.01 2.38 2.02 0 1 C0 0.67 0 0.34 0 0 Z " fill="#7A594B" transform="translate(106,171)"/>
<path d="M0 0 C0 0.99 0 1.98 0 3 C-0.33 3.33 -0.66 3.66 -1 4 C-1.07148199 5.35243917 -1.08399454 6.70834367 -1.0625 8.0625 C-1.041875 9.361875 -1.02125 10.66125 -1 12 C-0.01 12 0.98 12 2 12 C2 12.99 2 13.98 2 15 C3.65 15.33 5.3 15.66 7 16 C7 16.33 7 16.66 7 17 C4.03 17.66 1.06 18.32 -2 19 C-1.01 17.02 -0.02 15.04 1 13 C0.34 13 -0.32 13 -1 13 C-1.33 13.99 -1.66 14.98 -2 16 C-4.64924136 13.35075864 -4.65047622 11.70495205 -5 8 C-4.7355646 5.65785793 -4.41755362 3.31974234 -4 1 C-2.68 0.67 -1.36 0.34 0 0 Z " fill="#73777B" transform="translate(109,97)"/>
<path d="M0 0 C3.60239038 3.13756581 3.9957244 3.97862202 5 9 C-1.93 9 -8.86 9 -16 9 C-16.33 8.34 -16.66 7.68 -17 7 C-15.02 6.67 -13.04 6.34 -11 6 C-11 6.66 -11 7.32 -11 8 C-8.36 7.67 -5.72 7.34 -3 7 C-2.89459074 4.78918149 -2.89459074 4.78918149 -4 2 C-3.34 2 -2.68 2 -2 2 C-1.34 2.66 -0.68 3.32 0 4 C0 2.68 0 1.36 0 0 Z " fill="#BFC9AC" transform="translate(70,176)"/>
<path d="M0 0 C4.95 1.65 9.9 3.3 15 5 C15 6.32 15 7.64 15 9 C3.47835991 5.92482916 3.47835991 5.92482916 -2 4 C-1.34 3.67 -0.68 3.34 0 3 C0 2.01 0 1.02 0 0 Z " fill="#555A52" transform="translate(53,87)"/>
<path d="M0 0 C0.33 0.66 0.66 1.32 1 2 C0.01 2 -0.98 2 -2 2 C-2.33 3.98 -2.66 5.96 -3 8 C-2.34 8 -1.68 8 -1 8 C-0.67 7.34 -0.34 6.68 0 6 C-0.33 7.32 -0.66 8.64 -1 10 C-2.75 10.75 -2.75 10.75 -5 11 C-7.25 9.0625 -7.25 9.0625 -9 7 C-8.67 6.01 -8.34 5.02 -8 4 C-7.9254644 2.7763932 -7.9254644 2.7763932 -9 1 C-6.04335481 -0.4783226 -3.25770263 -0.06032783 0 0 Z " fill="#704435" transform="translate(113,174)"/>
<path d="M0 0 C0 0.66 0 1.32 0 2 C-1.98 2.99 -3.96 3.98 -6 5 C-5.67 5.99 -5.34 6.98 -5 8 C-7.60508636 7.88608368 -10.20845546 7.75934452 -12.8125 7.625 C-13.55048828 7.5940625 -14.28847656 7.563125 -15.04882812 7.53125 C-18.81893115 7.32653852 -20.79650741 7.13566173 -24 5 C-21.77149723 4.66225668 -19.54216533 4.3299813 -17.3125 4 C-15.45044922 3.7215625 -15.45044922 3.7215625 -13.55078125 3.4375 C-10.64113629 3.07899589 -7.92299978 2.91057744 -5 3 C-5 2.34 -5 1.68 -5 1 C-2 0 -2 0 0 0 Z " fill="#79988F" transform="translate(104,124)"/>
<path d="M0 0 C2.375 0.6875 2.375 0.6875 3.375 1.6875 C3.41563832 3.35367115 3.417721 5.02138095 3.375 6.6875 C1.91676788 6.7145043 0.45839325 6.73389787 -1 6.75 C-1.81210938 6.76160156 -2.62421875 6.77320313 -3.4609375 6.78515625 C-5.625 6.6875 -5.625 6.6875 -7.625 5.6875 C-5.9822279 1.89648747 -4.54678453 -0.54128387 0 0 Z " fill="#A7753E" transform="translate(110.625,6.3125)"/>
<path d="M0 0 C2.4375 0.375 2.4375 0.375 5 1 C5.33 1.66 5.66 2.32 6 3 C5.35933594 3.18175781 4.71867187 3.36351563 4.05859375 3.55078125 C0.02013667 4.72440142 -3.75147745 5.88227879 -7.5625 7.6875 C-11.85162045 9.32516417 -15.4699568 9.27734958 -20 9 C-19.67 8.34 -19.34 7.68 -19 7 C-16.93819224 6.41756843 -14.84831607 5.9328365 -12.75 5.5 C-8.65298183 4.64722699 -4.78492058 3.8233924 -1 2 C-0.67 1.34 -0.34 0.68 0 0 Z " fill="#432E17" transform="translate(90,70)"/>
<path d="M0 0 C4.49797113 1.68673918 8.72886302 3.81673892 13 6 C12.67 6.99 12.34 7.98 12 9 C8.81858133 9.46557346 6.74656877 9.50963377 4.04296875 7.6640625 C2.3064392 6.15741976 0.630282 4.62063536 -1 3 C-0.67 2.01 -0.34 1.02 0 0 Z " fill="#8897A4" transform="translate(94,149)"/>
<path d="M0 0 C0.66 0.33 1.32 0.66 2 1 C2 1.99 2 2.98 2 4 C2.99 4 3.98 4 5 4 C4.34 2.68 3.68 1.36 3 0 C5.9375 0.75 5.9375 0.75 9 2 C9.875 4.125 9.875 4.125 10 6 C6.3558226 8.4294516 4.28758728 8.16179575 0 8 C-1.125 2.25 -1.125 2.25 0 0 Z " fill="#D8D0BE" transform="translate(95,181)"/>
<path d="M0 0 C0.53625 0.66 1.0725 1.32 1.625 2 C3.89958592 4.31024799 3.89958592 4.31024799 7.25 4.25 C8.1575 4.1675 9.065 4.085 10 4 C8.25 7.875 8.25 7.875 6 9 C6 8.01 6 7.02 6 6 C5.03964844 6.32742187 4.07929687 6.65484375 3.08984375 6.9921875 C-1.43156859 8.2840196 -5.76792046 8.22283164 -10.4375 8.125 C-11.26443359 8.11597656 -12.09136719 8.10695312 -12.94335938 8.09765625 C-14.96236708 8.07431512 -16.98122356 8.03845288 -19 8 C-19.33 7.01 -19.66 6.02 -20 5 C-19.00871094 5.16371094 -18.01742187 5.32742187 -16.99609375 5.49609375 C-13.00645421 6.06604226 -9.09378059 6.09817505 -5.0625 6.0625 C-4.37865234 6.05798828 -3.69480469 6.05347656 -2.99023438 6.04882812 C-1.32678396 6.0371956 0.3366205 6.01926694 2 6 C1.34 4.02 0.68 2.04 0 0 Z " fill="#889477" transform="translate(106,183)"/>
<path d="M0 0 C3.465 1.485 3.465 1.485 7 3 C6.67 4.98 6.34 6.96 6 9 C7.65 9.33 9.3 9.66 11 10 C11 10.33 11 10.66 11 11 C8.03 11 5.06 11 2 11 C0.57741188 7.17679443 -0.24042276 4.08718695 0 0 Z " fill="#A4CBB6" transform="translate(89,160)"/>
<path d="M0 0 C0.33 0 0.66 0 1 0 C0.96519531 0.78503906 0.93039063 1.57007812 0.89453125 2.37890625 C0.7272184 8.87223819 1.05633467 13.23041595 4 19 C4.6875 21.9375 4.6875 21.9375 5 24 C3.02 24.66 1.04 25.32 -1 26 C-1.66 24.68 -2.32 23.36 -3 22 C-1.02 22.99 -1.02 22.99 1 24 C0.21824485 19.15311808 -1.39844278 14.6233633 -3 10 C-2.34 10 -1.68 10 -1 10 C-0.67 6.7 -0.34 3.4 0 0 Z " fill="#474948" transform="translate(51,99)"/>
<path d="M0 0 C6.6 0.33 13.2 0.66 20 1 C20 1.33 20 1.66 20 2 C15.71 2 11.42 2 7 2 C7 2.66 7 3.32 7 4 C6.34 3.67 5.68 3.34 5 3 C4.01 3.33 3.02 3.66 2 4 C2 4.66 2 5.32 2 6 C4.64 6.33 7.28 6.66 10 7 C10 7.33 10 7.66 10 8 C7.03 8 4.06 8 1 8 C0.67 5.36 0.34 2.72 0 0 Z " fill="#97C2A2" transform="translate(62,160)"/>
<path d="M0 0 C0.66 0 1.32 0 2 0 C2.33 0.99 2.66 1.98 3 3 C2.67 3.66 2.34 4.32 2 5 C1.34 5 0.68 5 0 5 C0.66 6.98 1.32 8.96 2 11 C4.31 11.33 6.62 11.66 9 12 C8.67 13.32 8.34 14.64 8 16 C6.02 16 4.04 16 2 16 C2 15.01 2 14.02 2 13 C1.01 13 0.02 13 -1 13 C-2.3899408 10.2201184 -2.18488204 8.0813674 -2 5 C-1 2.6875 -1 2.6875 0 1 C0 0.67 0 0.34 0 0 Z " fill="#909199" transform="translate(109,96)"/>
<path d="M0 0 C3.3 0 6.6 0 10 0 C10.12375 0.78375 10.2475 1.5675 10.375 2.375 C10.79117993 5.14057822 10.79117993 5.14057822 13 7 C11.375 7.6875 11.375 7.6875 9 8 C5.44659906 6.54963227 2.39567703 5.06114288 0 2 C0 1.34 0 0.68 0 0 Z " fill="#607475" transform="translate(63,128)"/>
<path d="M0 0 C2.31 0 4.62 0 7 0 C7 1.32 7 2.64 7 4 C9.64 3.67 12.28 3.34 15 3 C15 3.66 15 4.32 15 5 C11.29797086 6.23400971 7.85233255 6.44181681 4 6 C1.5 4.6875 1.5 4.6875 0 3 C0 2.01 0 1.02 0 0 Z " fill="#855B30" transform="translate(70,79)"/>
<path d="M0 0 C0.85658203 0.30744141 0.85658203 0.30744141 1.73046875 0.62109375 C8.79586515 2.96873739 15.58380566 3.66290026 23 4 C22.67 4.66 22.34 5.32 22 6 C6.69080861 6.57329843 6.69080861 6.57329843 1 3 C0.67 2.01 0.34 1.02 0 0 Z " fill="#171D10" transform="translate(86,190)"/>
<path d="M0 0 C0.99 0 1.98 0 3 0 C3.53190541 1.43344 4.05015258 2.87195367 4.5625 4.3125 C4.85253906 5.11300781 5.14257812 5.91351563 5.44140625 6.73828125 C6 9 6 9 5 12 C2.2198076 10.98059612 1.17185783 10.30279713 -0.3125 7.6875 C-1.07479299 4.7076274 -0.83686751 2.9290363 0 0 Z " fill="#9FA6A5" transform="translate(47,111)"/>
<path d="M0 0 C6.95041086 -0.26618595 13.23514355 0.3879491 20 2 C20 2.33 20 2.66 20 3 C17.03 3 14.06 3 11 3 C11.33 3.99 11.66 4.98 12 6 C6.125 5.125 6.125 5.125 5 4 C4.01 3.67 3.02 3.34 2 3 C1.34 2.01 0.68 1.02 0 0 Z " fill="#6C6D73" transform="translate(57,120)"/>
<path d="M0 0 C0.99 0.33 1.98 0.66 3 1 C2.43804235 4.93370357 1.44407389 7.83175607 -1 11 C-2.32 11 -3.64 11 -5 11 C-4.54917531 9.53932801 -4.08906463 8.08151968 -3.625 6.625 C-3.36976562 5.81289063 -3.11453125 5.00078125 -2.8515625 4.1640625 C-2 2 -2 2 0 0 Z " fill="#A0773E" transform="translate(109,14)"/>
<path d="M0 0 C1.9375 0.75 1.9375 0.75 3.9375 2.75 C3.9375 3.74 3.9375 4.73 3.9375 5.75 C3.339375 5.894375 2.74125 6.03875 2.125 6.1875 C0.37599596 6.6372439 -1.34927023 7.17892341 -3.0625 7.75 C-3.0625 6.43 -3.0625 5.11 -3.0625 3.75 C-4.7125 3.75 -6.3625 3.75 -8.0625 3.75 C-2.0625 -0.25 -2.0625 -0.25 0 0 Z " fill="#87B9AD" transform="translate(103.0625,126.25)"/>
<path d="M0 0 C0.66 0 1.32 0 2 0 C1.34 2.31 0.68 4.62 0 7 C-4.67201205 8.20568053 -9.21496292 8.09382426 -14 8 C-14 7.67 -14 7.34 -14 7 C-11.69 7 -9.38 7 -7 7 C-6.67 5.68 -6.34 4.36 -6 3 C-5.195625 2.87625 -4.39125 2.7525 -3.5625 2.625 C-2.716875 2.41875 -1.87125 2.2125 -1 2 C-0.67 1.34 -0.34 0.68 0 0 Z " fill="#8C9094" transform="translate(103,115)"/>
<path d="M0 0 C0.268125 0.5775 0.53625 1.155 0.8125 1.75 C1.92190915 4.02281979 1.92190915 4.02281979 3.5 5.875 C5.81307906 9.15186201 7.26216985 12.33959093 6.625 16.375 C6.41875 16.91125 6.2125 17.4475 6 18 C4 15 4 15 4 11 C3.01 11 2.02 11 1 11 C0 8 0 8 1 5 C0.34 5 -0.32 5 -1 5 C-0.67 3.35 -0.34 1.7 0 0 Z " fill="#957740" transform="translate(106,25)"/>
<path d="M0 0 C0 0.99 0 1.98 0 3 C-3 4 -3 4 -6 3 C-6 3.66 -6 4.32 -6 5 C-7.32 5.33 -8.64 5.66 -10 6 C-10 5.34 -10 4.68 -10 4 C-11.32 3.67 -12.64 3.34 -14 3 C-14 2.67 -14 2.34 -14 2 C-9.126739 0.4087311 -5.19209404 -0.21192221 0 0 Z " fill="#9B5650" transform="translate(91,173)"/>
<path d="M0 0 C1.9375 0.6875 1.9375 0.6875 4 2 C4.75 4.625 4.75 4.625 5 7 C2.69 7.33 0.38 7.66 -2 8 C-1.34 5.36 -0.68 2.72 0 0 Z M-3 8 C-2.67 8 -2.34 8 -2 8 C-1.375 10.875 -1.375 10.875 -1 14 C-1.66 14.66 -2.32 15.32 -3 16 C-3 13.36 -3 10.72 -3 8 Z " fill="#909C96" transform="translate(55,98)"/>
<path d="M0 0 C0 0.66 0 1.32 0 2 C-14.83186504 5.97282099 -14.83186504 5.97282099 -20 3 C-17.79344925 2.49219106 -15.58466395 1.99408635 -13.375 1.5 C-11.53035156 1.08234375 -11.53035156 1.08234375 -9.6484375 0.65625 C-6.32847772 0.05908379 -3.36091549 -0.12409534 0 0 Z " fill="#352C1C" transform="translate(86,22)"/>
<path d="M0 0 C4.29 0 8.58 0 13 0 C12.01 0.495 12.01 0.495 11 1 C10.67 1.99 10.34 2.98 10 4 C8.68 3.67 7.36 3.34 6 3 C6.33 3.33 6.66 3.66 7 4 C7.66 4.66 8.32 5.32 9 6 C5.65626525 5.44271087 2.96687001 4.64826111 0 3 C0 2.01 0 1.02 0 0 Z " fill="#739E90" transform="translate(103,131)"/>
<path d="M0 0 C-1.98 0 -3.96 0 -6 0 C-6 0.99 -6 1.98 -6 3 C-6.66 3 -7.32 3 -8 3 C-8 3.99 -8 4.98 -8 6 C-6.68 6.33 -5.36 6.66 -4 7 C-4.33 8.32 -4.66 9.64 -5 11 C-5 10.34 -5 9.68 -5 9 C-7.31 8.34 -9.62 7.68 -12 7 C-11.34 6.67 -10.68 6.34 -10 6 C-10.33 4.68 -10.66 3.36 -11 2 C-9.68 2 -8.36 2 -7 2 C-7 1.34 -7 0.68 -7 0 C-8.65 0 -10.3 0 -12 0 C-12 -0.33 -12 -0.66 -12 -1 C-3.42857143 -2.42857143 -3.42857143 -2.42857143 0 0 Z " fill="#212729" transform="translate(86,129)"/>
<path d="M0 0 C1.48285242 0.95262034 2.96118201 1.91228405 4.4375 2.875 C5.67306641 3.67550781 5.67306641 3.67550781 6.93359375 4.4921875 C9 6 9 6 10 8 C3.6 8.36923077 3.6 8.36923077 0.5625 6.5 C0.046875 6.005 -0.46875 5.51 -1 5 C-0.67 3.35 -0.34 1.7 0 0 Z " fill="#475453" transform="translate(105,122)"/>
<path d="M0 0 C1.65 0 3.3 0 5 0 C4.01 0.66 3.02 1.32 2 2 C2.09539063 2.71285156 2.19078125 3.42570312 2.2890625 4.16015625 C2.97119249 10.05344207 3.10358772 14.43167955 1 20 C0.67 20 0.34 20 0 20 C0.03480469 19.15695313 0.06960937 18.31390625 0.10546875 17.4453125 C0.13253906 16.34960938 0.15960938 15.25390625 0.1875 14.125 C0.22230469 13.03445312 0.25710937 11.94390625 0.29296875 10.8203125 C0.14794922 9.42425781 0.14794922 9.42425781 0 8 C-0.99 7.34 -1.98 6.68 -3 6 C-2.01 4.02 -1.02 2.04 0 0 Z " fill="#7A8682" transform="translate(51,91)"/>
<path d="M0 0 C0.598125 0.185625 1.19625 0.37125 1.8125 0.5625 C4.16408762 1.22093687 4.16408762 1.22093687 7 0 C7.33 0.66 7.66 1.32 8 2 C10.34907875 2.68931344 10.34907875 2.68931344 13.0625 3.125 C13.98160156 3.29257813 14.90070312 3.46015625 15.84765625 3.6328125 C16.91306641 3.81457031 16.91306641 3.81457031 18 4 C17.67 4.99 17.34 5.98 17 7 C10.49200879 6.00481422 5.5332147 4.60861828 0 1 C0 0.67 0 0.34 0 0 Z " fill="#262B22" transform="translate(20,75)"/>
<path d="M0 0 C0.66 0.33 1.32 0.66 2 1 C4.30028162 1.23174479 6.59880047 1.38109483 8.90625 1.5234375 C11 2 11 2 13 5 C11.04196493 5.05389087 9.08351091 5.09274217 7.125 5.125 C6.03445312 5.14820313 4.94390625 5.17140625 3.8203125 5.1953125 C1 5 1 5 -1 3 C-0.67 2.01 -0.34 1.02 0 0 Z " fill="#84BAA7" transform="translate(68,154)"/>
<path d="M0 0 C0.125 5.75 0.125 5.75 -1 8 C-3.97 7.505 -3.97 7.505 -7 7 C-6.67 5.02 -6.34 3.04 -6 1 C-1.125 0 -1.125 0 0 0 Z " fill="#B06B41" transform="translate(103,61)"/>
<path d="M0 0 C0.33 0 0.66 0 1 0 C1 5.28 1 10.56 1 16 C1.66 16 2.32 16 3 16 C3 19.63 3 23.26 3 27 C2.67 27 2.34 27 2 27 C2 24.03 2 21.06 2 18 C-1.96 18.495 -1.96 18.495 -6 19 C-4 17 -4 17 -1 16 C-0.67 10.72 -0.34 5.44 0 0 Z " fill="#1E2A1A" transform="translate(120,143)"/>
<path d="M0 0 C0.66 0 1.32 0 2 0 C2.69821417 2.10063576 3.38324472 4.20565737 4.0625 6.3125 C4.44535156 7.48425781 4.82820313 8.65601563 5.22265625 9.86328125 C6 13 6 13 5 16 C3 15 3 15 2.1484375 12.890625 C1.89320312 12.01921875 1.63796875 11.1478125 1.375 10.25 C0.98441406 8.95835937 0.98441406 8.95835937 0.5859375 7.640625 C0.00060132 5.00270994 -0.10651736 2.69198424 0 0 Z " fill="#738C8F" transform="translate(79,138)"/>
<path d="M0 0 C3.3 0.33 6.6 0.66 10 1 C10.33 1.99 10.66 2.98 11 4 C9.75 5.5625 9.75 5.5625 8 7 C5.8125 6.6875 5.8125 6.6875 4 6 C4 4.68 4 3.36 4 2 C2.68 2.33 1.36 2.66 0 3 C0 2.01 0 1.02 0 0 Z " fill="#1E180F" transform="translate(83,34)"/>
<path d="M0 0 C1.65 0.33 3.3 0.66 5 1 C5 2.32 5 3.64 5 5 C4.34 4.67 3.68 4.34 3 4 C1.70366379 5.06645115 1.70366379 5.06645115 1.9375 7.5625 C1.958125 8.366875 1.97875 9.17125 2 10 C1.01 10.495 1.01 10.495 0 11 C-0.66 10.67 -1.32 10.34 -2 10 C-2.20271267 6.35117201 -1.81140333 4.16995583 0 1 C0 0.67 0 0.34 0 0 Z " fill="#A97E3A" transform="translate(95,71)"/>
<path d="M0 0 C3.3 0 6.6 0 10 0 C10 1.65 10 3.3 10 5 C8.35 5.33 6.7 5.66 5 6 C4.67 4.35 4.34 2.7 4 1 C2.68 0.67 1.36 0.34 0 0 Z " fill="#261C12" transform="translate(66,35)"/>
<path d="M0 0 C1.65 0 3.3 0 5 0 C5.22245393 1.60226955 5.42746669 3.20696767 5.625 4.8125 C5.74101563 5.70582031 5.85703125 6.59914062 5.9765625 7.51953125 C6 10 6 10 4 13 C2.68 8.71 1.36 4.42 0 0 Z " fill="#709578" transform="translate(117,161)"/>
<path d="M0 0 C3.625 0.375 3.625 0.375 7 1 C7 2.65 7 4.3 7 6 C4.69 5.67 2.38 5.34 0 5 C0 4.34 0 3.68 0 3 C-0.66 2.67 -1.32 2.34 -2 2 C-1.34 1.34 -0.68 0.68 0 0 Z " fill="#B1DAC8" transform="translate(96,163)"/>
<path d="M0 0 C0.33 1.65 0.66 3.3 1 5 C-1.475 4.01 -1.475 4.01 -4 3 C-4 3.66 -4 4.32 -4 5 C-5.65 5 -7.3 5 -9 5 C-8.625 3.0625 -8.625 3.0625 -8 1 C-5.29120665 -0.35439668 -2.99066732 -0.06501451 0 0 Z " fill="#AA7E37" transform="translate(109,79)"/>
<path d="M0 0 C1 1 1 1 1.0625 4.5625 C1.041875 5.696875 1.02125 6.83125 1 8 C0.67 8 0.34 8 0 8 C-0.66 6.02 -1.32 4.04 -2 2 C-6.87362847 2.45336079 -9.39042389 3.7089159 -13 7 C-12.06479312 3.85430413 -11.29872512 2.2489376 -8.75 0.125 C-5.36951692 -1.2579249 -3.48291451 -0.94988578 0 0 Z " fill="#372B1B" transform="translate(114,5)"/>
<path d="M0 0 C6.27 0 12.54 0 19 0 C19 0.66 19 1.32 19 2 C13.03325384 3.32594359 7.07416385 3.0884587 1 3 C0.67 2.01 0.34 1.02 0 0 Z " fill="#8B937E" transform="translate(60,185)"/>
<path d="M0 0 C0.66 1.32 1.32 2.64 2 4 C-5.625 5.25 -5.625 5.25 -9 3 C-5.92807025 0.26939578 -4.09590633 -0.34132553 0 0 Z " fill="#919A96" transform="translate(115,87)"/>
<path d="M0 0 C2 0 2 0 4.25 2 C7.45264744 5.35606768 10.73947418 8.9378521 13 13 C12.67 13.99 12.34 14.98 12 16 C11.23816406 14.82630859 11.23816406 14.82630859 10.4609375 13.62890625 C9.42839844 12.11103516 9.42839844 12.11103516 8.375 10.5625 C7.70210937 9.55316406 7.02921875 8.54382813 6.3359375 7.50390625 C3.56560381 4.53436796 1.98094078 4.22243079 -2 4 C-1.34 3.67 -0.68 3.34 0 3 C0 2.01 0 1.02 0 0 Z " fill="#293028" transform="translate(111,83)"/>
<path d="M0 0 C0.99 0 1.98 0 3 0 C3.33 0.66 3.66 1.32 4 2 C5.65 1.67 7.3 1.34 9 1 C8.67 1.66 8.34 2.32 8 3 C7.34 3 6.68 3 6 3 C6 4.65 6 6.3 6 8 C4.68 8 3.36 8 2 8 C1.34 5.36 0.68 2.72 0 0 Z " fill="#8E7466" transform="translate(70,171)"/>
<path d="M0 0 C1.32 0 2.64 0 4 0 C4.33 0.99 4.66 1.98 5 3 C0.62962963 6.03497942 0.62962963 6.03497942 -2.25 5.875 C-4 5 -4 5 -5 2 C-3.68 2 -2.36 2 -1 2 C-0.67 1.34 -0.34 0.68 0 0 Z " fill="#9BA1A4" transform="translate(58,113)"/>
<path d="M0 0 C0.66 0 1.32 0 2 0 C0.87548273 2.9719385 -0.22293791 5.33440687 -2 8 C-2.70164642 9.98799818 -3.37372872 11.98698517 -4 14 C-5.65 14.33 -7.3 14.66 -9 15 C-8.67 14.01 -8.34 13.02 -8 12 C-7.01 11.67 -6.02 11.34 -5 11 C-4.05222674 9.23424291 -4.05222674 9.23424291 -3.4375 7.125 C-2.51191912 4.29073539 -1.69894116 2.54841174 0 0 Z " fill="#232A29" transform="translate(108,110)"/>
<path d="M0 0 C2.475 0.495 2.475 0.495 5 1 C4.625 2.9375 4.625 2.9375 4 5 C3.01 5.495 3.01 5.495 2 6 C2.33 8.97 2.66 11.94 3 15 C1 14 1 14 0 11 C-0.0685495 9.10529184 -0.08480372 7.2083166 -0.0625 5.3125 C-0.05347656 4.31863281 -0.04445312 3.32476562 -0.03515625 2.30078125 C-0.02355469 1.54152344 -0.01195312 0.78226562 0 0 Z " fill="#717A73" transform="translate(45,106)"/>
<path d="M0 0 C4.62 0 9.24 0 14 0 C14 0.66 14 1.32 14 2 C7.565 2.495 7.565 2.495 1 3 C0.67 2.01 0.34 1.02 0 0 Z " fill="#64686A" transform="translate(78,125)"/>
<path d="M0 0 C-0.33 0.99 -0.66 1.98 -1 3 C-4.3 3.33 -7.6 3.66 -11 4 C-11 3.01 -11 2.02 -11 1 C-7.27569643 0.30710631 -3.78916254 -0.11144596 0 0 Z " fill="#777D7C" transform="translate(99,90)"/>
<path d="M0 0 C10.55808656 -0.3690205 10.55808656 -0.3690205 15 2 C14.67 2.66 14.34 3.32 14 4 C13.45859375 3.83628906 12.9171875 3.67257813 12.359375 3.50390625 C9.59777407 2.91409413 7.07181861 2.90390692 4.25 2.9375 C3.26515625 2.94652344 2.2803125 2.95554687 1.265625 2.96484375 C0.14414063 2.98224609 0.14414063 2.98224609 -1 3 C-0.67 2.01 -0.34 1.02 0 0 Z " fill="#291A0C" transform="translate(82,29)"/>
<path d="M0 0 C2.31 0 4.62 0 7 0 C5.74458443 2.51083114 4.49936512 2.87125446 2 4 C2.66 5.65 3.32 7.3 4 9 C3.01 9.495 3.01 9.495 2 10 C2 9.34 2 8.68 2 8 C1.34 8 0.68 8 0 8 C0 5.36 0 2.72 0 0 Z " fill="#8BBAB4" transform="translate(59,138)"/>
<path d="M0 0 C0.99 0.33 1.98 0.66 3 1 C2.67 1.66 2.34 2.32 2 3 C1.34 2.67 0.68 2.34 0 2 C-0.33 4.64 -0.66 7.28 -1 10 C-1.33 10 -1.66 10 -2 10 C-2 8.02 -2 6.04 -2 4 C-4.97 4 -7.94 4 -11 4 C-10.67 3.34 -10.34 2.68 -10 2 C-9.0925 2.04125 -8.185 2.0825 -7.25 2.125 C-4.0398182 2.00153147 -2.75469626 1.4248429 0 0 Z " fill="#607C71" transform="translate(118,127)"/>
<path d="M0 0 C0.33 0.99 0.66 1.98 1 3 C-2.69418201 4.231394 -5.2056261 3.64432764 -9 3 C-8.67 2.01 -8.34 1.02 -8 0 C-5.10775892 -1.19678941 -2.89224108 -1.19678941 0 0 Z " fill="#9D733C" transform="translate(75,27)"/>
<path d="M0 0 C-0.33 1.32 -0.66 2.64 -1 4 C-3.97 4 -6.94 4 -10 4 C-10.33 3.34 -10.66 2.68 -11 2 C-3.375 0 -3.375 0 0 0 Z " fill="#C9D0B8" transform="translate(112,189)"/>
<path d="M0 0 C1.49080078 0.02707031 1.49080078 0.02707031 3.01171875 0.0546875 C3.77097656 0.07789063 4.53023437 0.10109375 5.3125 0.125 C5.6425 0.785 5.9725 1.445 6.3125 2.125 C4.0025 2.125 1.6925 2.125 -0.6875 2.125 C-1.0175 2.785 -1.3475 3.445 -1.6875 4.125 C-6.4375 3.25 -6.4375 3.25 -8.6875 2.125 C-5.26655758 -0.15562828 -4.00562778 -0.09425007 0 0 Z " fill="#B9A18E" transform="translate(95.6875,177.875)"/>
<path d="M0 0 C4.62 0 9.24 0 14 0 C13.34 1.32 12.68 2.64 12 4 C12 3.34 12 2.68 12 2 C8.04 2 4.08 2 0 2 C0 1.34 0 0.68 0 0 Z " fill="#8EB2AB" transform="translate(82,132)"/>
<path d="M0 0 C0.66 0 1.32 0 2 0 C1.67 3.63 1.34 7.26 1 11 C-0.65 10.67 -2.3 10.34 -4 10 C-4 7.69 -4 5.38 -4 3 C-3.67 3 -3.34 3 -3 3 C-3 4.98 -3 6.96 -3 9 C-2.34 9 -1.68 9 -1 9 C-0.67 6.03 -0.34 3.06 0 0 Z " fill="#43351E" transform="translate(99,13)"/>
<path d="M0 0 C1.45742463 -0.08096803 2.91612807 -0.13917774 4.375 -0.1875 C5.18710938 -0.22230469 5.99921875 -0.25710937 6.8359375 -0.29296875 C7.55007812 -0.19628906 8.26421875 -0.09960938 9 0 C9.66 0.99 10.32 1.98 11 3 C9 3 7 3 5 3 C5 3.66 5 4.32 5 5 C4.01 5 3.02 5 2 5 C1.34 3.35 0.68 1.7 0 0 Z " fill="#C5B6A5" transform="translate(95,180)"/>
<path d="M0 0 C0.99 0.495 0.99 0.495 2 1 C2 1.66 2 2.32 2 3 C2.66 3 3.32 3 4 3 C3.835 3.680625 3.67 4.36125 3.5 5.0625 C2.92910941 8.4164822 2.93340977 11.60389805 3 15 C2.67 15 2.34 15 2 15 C0.73694665 9.92523206 -0.27036084 5.27203646 0 0 Z " fill="#76A491" transform="translate(56,130)"/>
<path d="M0 0 C0.99 0.33 1.98 0.66 3 1 C3 3.23918755 2.34026798 4.21297603 1 6 C-1.6974391 6.68261724 -4.20212158 6.81949171 -7 7 C-6.21625 6.401875 -5.4325 5.80375 -4.625 5.1875 C-1.85425677 3.08914751 -1.85425677 3.08914751 0 0 Z " fill="#654838" transform="translate(117,181)"/>
<path d="M0 0 C3.3 0.66 6.6 1.32 10 2 C10.33 3.65 10.66 5.3 11 7 C10.01 6.67 9.02 6.34 8 6 C8 5.34 8 4.68 8 4 C3.545 3.01 3.545 3.01 -1 2 C-0.67 1.34 -0.34 0.68 0 0 Z " fill="#DADBC8" transform="translate(60,174)"/>
<path d="M0 0 C9.41002278 -0.3690205 9.41002278 -0.3690205 14 2 C14 2.33 14 2.66 14 3 C10.04 3 6.08 3 2 3 C2 2.34 2 1.68 2 1 C1.34 0.67 0.68 0.34 0 0 Z " fill="#709288" transform="translate(88,158)"/>
<path d="M0 0 C0.86625 0.3403125 0.86625 0.3403125 1.75 0.6875 C-4 5.6875 -4 5.6875 -6.25 5.6875 C-6.58 6.6775 -6.91 7.6675 -7.25 8.6875 C-6.76566469 3.23872777 -6.76566469 3.23872777 -4.4375 0.75 C-2.25 -0.3125 -2.25 -0.3125 0 0 Z " fill="#ABB79E" transform="translate(58.25,171.3125)"/>
<path d="M0 0 C1.19287411 3.87684087 2 6.91621923 2 11 C1.34 11 0.68 11 0 11 C-1.4216319 7.6828589 -2.39009109 4.55780196 -3 1 C-1 0 -1 0 0 0 Z " fill="#2F3B33" transform="translate(54,123)"/>
<path d="M0 0 C1.65 1.32 3.3 2.64 5 4 C3.824375 3.9690625 3.824375 3.9690625 2.625 3.9375 C0.01885039 3.81315937 0.01885039 3.81315937 -2 5 C-2.33 5.99 -2.66 6.98 -3 8 C-3.33 6.35 -3.66 4.7 -4 3 C-3.34 3 -2.68 3 -2 3 C-2 2.34 -2 1.68 -2 1 C-1.34 0.67 -0.68 0.34 0 0 Z " fill="#80AE89" transform="translate(64,155)"/>
<path d="M0 0 C0.66 0 1.32 0 2 0 C0.6062718 4.43458973 -1.60582235 6.87378374 -5 10 C-5.33 8.68 -5.66 7.36 -6 6 C-5.01 6 -4.02 6 -3 6 C-3 5.34 -3 4.68 -3 4 C-2.34 4 -1.68 4 -1 4 C-0.67 2.68 -0.34 1.36 0 0 Z " fill="#83868D" transform="translate(124,117)"/>
<path d="M0 0 C4.70588235 0.70588235 4.70588235 0.70588235 6 2 C7.66617115 2.04063832 9.33388095 2.042721 11 2 C10.01 2.33 9.02 2.66 8 3 C8 3.66 8 4.32 8 5 C2.46153846 4.38461538 2.46153846 4.38461538 0.125 2.4375 C-0.24625 1.963125 -0.6175 1.48875 -1 1 C-0.67 0.67 -0.34 0.34 0 0 Z " fill="#303536" transform="translate(55,120)"/>
<path d="M0 0 C2.33944736 0.28730055 4.6739143 0.61936779 7 1 C6.67 2.32 6.34 3.64 6 5 C4.02 5 2.04 5 0 5 C-0.5625 3.0625 -0.5625 3.0625 -1 1 C-0.67 0.67 -0.34 0.34 0 0 Z " fill="#828A88" transform="translate(111,107)"/>
<path d="M0 0 C2.64 0 5.28 0 8 0 C8 0.99 8 1.98 8 3 C5.36 3 2.72 3 0 3 C0 2.01 0 1.02 0 0 Z " fill="#838B83" transform="translate(73,92)"/>
<path d="M0 0 C-0.33 1.32 -0.66 2.64 -1 4 C-2.65 4 -4.3 4 -6 4 C-6.33 2.68 -6.66 1.36 -7 0 C-3.98968256 -0.93423645 -3.13349732 -1.04449911 0 0 Z " fill="#A98037" transform="translate(84,86)"/>
<path d="M0 0 C-1.375 1.5 -1.375 1.5 -3 3 C-3.66 3 -4.32 3 -5 3 C-5 3.66 -5 4.32 -5 5 C-5.99 5 -6.98 5 -8 5 C-8 4.34 -8 3.68 -8 3 C-8.66 2.67 -9.32 2.34 -10 2 C-6.49223216 0.39644899 -3.85645121 -0.22036864 0 0 Z " fill="#A5663D" transform="translate(96,73)"/>
<path d="M0 0 C0.99 0.33 1.98 0.66 3 1 C2.67 2.32 2.34 3.64 2 5 C-1.375 4.6875 -1.375 4.6875 -5 4 C-5.66 3.01 -6.32 2.02 -7 1 C-5.68 1 -4.36 1 -3 1 C-3 1.66 -3 2.32 -3 3 C-2.01 2.01 -1.02 1.02 0 0 Z " fill="#AB7F36" transform="translate(96,57)"/>
<path d="M0 0 C0 1.32 0 2.64 0 4 C-1.65 4.33 -3.3 4.66 -5 5 C-5.33 3.68 -5.66 2.36 -6 1 C-3 0 -3 0 0 0 Z " fill="#A74E3F" transform="translate(120,177)"/>
<path d="M0 0 C0.33 0.66 0.66 1.32 1 2 C2.32 1.67 3.64 1.34 5 1 C5.66 2.65 6.32 4.3 7 6 C3.75791433 5.64950425 2.38472296 5.43778819 0.1875 2.9375 C-0.4003125 1.9784375 -0.4003125 1.9784375 -1 1 C-0.67 0.67 -0.34 0.34 0 0 Z " fill="#919F98" transform="translate(108,122)"/>
<path d="M0 0 C-3.20380017 2.13586678 -4.01939967 2.23132175 -7.6875 2.125 C-8.89986328 2.09792969 -8.89986328 2.09792969 -10.13671875 2.0703125 C-11.05904297 2.03550781 -11.05904297 2.03550781 -12 2 C-11.67 1.34 -11.34 0.68 -11 0 C-7.01133873 -0.99716532 -3.9676931 -1.0502717 0 0 Z " fill="#5B391F" transform="translate(82,77)"/>
<path d="M0 0 C0 0.99 0 1.98 0 3 C-0.66 3 -1.32 3 -2 3 C-2 3.66 -2 4.32 -2 5 C-5 4 -5 4 -7 1 C-4.53721199 -0.231394 -2.7204945 -0.07159196 0 0 Z " fill="#B1783E" transform="translate(80,26)"/>
<path d="M0 0 C-3.3146667 2.02907167 -5.4315979 2.12742133 -9.25 1.625 C-10.14203125 1.51414063 -11.0340625 1.40328125 -11.953125 1.2890625 C-12.62859375 1.19367188 -13.3040625 1.09828125 -14 1 C-14 0.67 -14 0.34 -14 0 C-8.97703996 -1.13016601 -5.02125926 -0.77916092 0 0 Z " fill="#314238" transform="translate(106,172)"/>
<path d="M0 0 C2.9375 0.25 2.9375 0.25 6 1 C6.66 1.99 7.32 2.98 8 4 C1.25 3.25 1.25 3.25 -1 1 C-0.67 0.67 -0.34 0.34 0 0 Z " fill="#C0CDB0" transform="translate(62,172)"/>
<path d="M0 0 C3.63559661 3.43361902 6.36113346 6.7973607 9 11 C4.70073737 9.40768051 2.64994267 6.60686641 0 3 C0 2.01 0 1.02 0 0 Z " fill="#1B1E11" transform="translate(7,62)"/>
<path d="M0 0 C4.95 0.33 9.9 0.66 15 1 C15 1.33 15 1.66 15 2 C13.06325815 2.19517554 11.12555991 2.38087873 9.1875 2.5625 C8.10855469 2.66691406 7.02960937 2.77132812 5.91796875 2.87890625 C3 3 3 3 0 2 C0 1.34 0 0.68 0 0 Z " fill="#4A5742" transform="translate(56,185)"/>
<path d="M0 0 C0.99 0.66 1.98 1.32 3 2 C2.67 3.32 2.34 4.64 2 6 C1.01 6 0.02 6 -1 6 C-1.625 4.125 -1.625 4.125 -2 2 C-1.34 1.34 -0.68 0.68 0 0 Z " fill="#999FA1" transform="translate(102,100)"/>
<path d="M0 0 C3.25696479 0.41755959 4.63443291 0.63443291 7 3 C4.69 3.33 2.38 3.66 0 4 C-0.33 3.01 -0.66 2.02 -1 1 C-0.67 0.67 -0.34 0.34 0 0 Z " fill="#AA7347" transform="translate(77,79)"/>
<path d="M0 0 C2.475 0.99 2.475 0.99 5 2 C4.34 4.97 3.68 7.94 3 11 C2.67 11 2.34 11 2 11 C1.34 7.37 0.68 3.74 0 0 Z " fill="#916A3E" transform="translate(35,34)"/>
<path d="M0 0 C0.66 0.33 1.32 0.66 2 1 C2 1.66 2 2.32 2 3 C-1.63 3 -5.26 3 -9 3 C-9 2.34 -9 1.68 -9 1 C-5.77390955 -0.07536348 -3.37822416 -0.14375422 0 0 Z " fill="#30210D" transform="translate(73,30)"/>
<path d="M0 0 C0.66 0 1.32 0 2 0 C2 0.66 2 1.32 2 2 C3.32 2.33 4.64 2.66 6 3 C5.67 4.32 5.34 5.64 5 7 C5 6.34 5 5.68 5 5 C2.69 4.34 0.38 3.68 -2 3 C-1.34 2.67 -0.68 2.34 0 2 C0 1.34 0 0.68 0 0 Z " fill="#31373C" transform="translate(76,133)"/>
<path d="M0 0 C0.99 0.66 1.98 1.32 3 2 C2.67 2.99 2.34 3.98 2 5 C0.35 5 -1.3 5 -3 5 C-3 4.01 -3 3.02 -3 2 C-2.01 2 -1.02 2 0 2 C0 1.34 0 0.68 0 0 Z " fill="#B1783C" transform="translate(90,22)"/>
<path d="M0 0 C2.31 0 4.62 0 7 0 C6.01 0.495 6.01 0.495 5 1 C4.67 1.99 4.34 2.98 4 4 C1.525 3.01 1.525 3.01 -1 2 C-0.67 1.34 -0.34 0.68 0 0 Z " fill="#7D9B94" transform="translate(109,131)"/>
<path d="M0 0 C5.53846154 -0.36923077 5.53846154 -0.36923077 7.875 1.5 C8.24625 1.995 8.6175 2.49 9 3 C2.25 3.125 2.25 3.125 0 2 C0 1.34 0 0.68 0 0 Z " fill="#303B3A" transform="translate(106,127)"/>
<path d="M0 0 C1.65 0 3.3 0 5 0 C5.33 0.66 5.66 1.32 6 2 C5.67 2.99 5.34 3.98 5 5 C3.0625 4.1875 3.0625 4.1875 1 3 C0.67 2.01 0.34 1.02 0 0 Z " fill="#8E909A" transform="translate(47,118)"/>
<path d="M0 0 C3.3 0.99 6.6 1.98 10 3 C7 5 7 5 4.4375 4.875 C2 4 2 4 0 0 Z " fill="#282E1F" transform="translate(86,190)"/>
<path d="M0 0 C2.95409701 1.37154504 5.44008376 2.98863724 8 5 C5.69 5 3.38 5 1 5 C0.67 3.35 0.34 1.7 0 0 Z " fill="#382617" transform="translate(90,172)"/>
<path d="M0 0 C5.75 0.75 5.75 0.75 8 3 C7.34 3 6.68 3 6 3 C5.67 3.66 5.34 4.32 5 5 C3.35 3.35 1.7 1.7 0 0 Z " fill="#69737B" transform="translate(65,147)"/>
<path d="M0 0 C0.66 0.33 1.32 0.66 2 1 C1.67 2.32 1.34 3.64 1 5 C-1.97 4.505 -1.97 4.505 -5 4 C-4.01 3.67 -3.02 3.34 -2 3 C-2 2.34 -2 1.68 -2 1 C-1.34 0.67 -0.68 0.34 0 0 Z " fill="#424C4E" transform="translate(98,122)"/>
<path d="M0 0 C0 0.99 0 1.98 0 3 C0.66 3.66 1.32 4.32 2 5 C-0.97 4.505 -0.97 4.505 -4 4 C-4.33 3.01 -4.66 2.02 -5 1 C-2 0 -2 0 0 0 Z " fill="#707C43" transform="translate(32,74)"/>
<path d="M0 0 C0.66 0 1.32 0 2 0 C1.67 1.65 1.34 3.3 1 5 C-0.32 4.67 -1.64 4.34 -3 4 C-3.33 4.99 -3.66 5.98 -4 7 C-4.33 6.01 -4.66 5.02 -5 4 C-4.0409375 3.8453125 -4.0409375 3.8453125 -3.0625 3.6875 C-2.381875 3.460625 -1.70125 3.23375 -1 3 C-0.67 2.01 -0.34 1.02 0 0 Z " fill="#9D763E" transform="translate(93,66)"/>
<path d="M0 0 C2.475 0.495 2.475 0.495 5 1 C5 1.99 5 2.98 5 4 C4.01 4 3.02 4 2 4 C1.34 2.68 0.68 1.36 0 0 Z " fill="#CBC0AA" transform="translate(89,180)"/>
<path d="M0 0 C1.98 0 3.96 0 6 0 C6.33 1.65 6.66 3.3 7 5 C6.67 4.34 6.34 3.68 6 3 C4.02111039 2.27306096 2.02045442 1.60183749 0 1 C0 0.67 0 0.34 0 0 Z " fill="#8EA2A4" transform="translate(72,136)"/>
<path d="M0 0 C0.33 0.99 0.66 1.98 1 3 C-0.28965176 4.37562854 -1.62689293 5.70766393 -3 7 C-3.66 7 -4.32 7 -5 7 C-5 5 -5 5 -3 3 C-2 2 -1 1 0 0 Z " fill="#41423D" transform="translate(110,83)"/>
<path d="M0 0 C-0.99 0.33 -1.98 0.66 -3 1 C-3 1.66 -3 2.32 -3 3 C-4.65 3.33 -6.3 3.66 -8 4 C-8.33 3.01 -8.66 2.02 -9 1 C-5.92677456 0.08941469 -3.19902639 -0.08886184 0 0 Z " fill="#382B1A" transform="translate(56,28)"/>
<path d="M0 0 C0 0.66 0 1.32 0 2 C-3.32534757 3.10844919 -5.62182575 2.84454356 -9 2 C-5.5647952 -0.29013653 -4.014669 -0.17842973 0 0 Z " fill="#4C4432" transform="translate(86,22)"/>
</svg>
